G75*
%MOIN*%
%OFA0B0*%
%FSLAX24Y24*%
%IPPOS*%
%LPD*%
%AMOC8*
5,1,8,0,0,1.08239X$1,22.5*
%
%ADD10C,0.0120*%
%ADD11C,0.0080*%
%ADD12C,0.0030*%
D10*
X000180Y000555D02*
X000180Y014805D01*
X000182Y014842D01*
X000187Y014878D01*
X000196Y014914D01*
X000209Y014949D01*
X000224Y014982D01*
X000243Y015013D01*
X000265Y015043D01*
X000290Y015070D01*
X000317Y015095D01*
X000347Y015117D01*
X000378Y015136D01*
X000411Y015151D01*
X000446Y015164D01*
X000482Y015173D01*
X000518Y015178D01*
X000555Y015180D01*
X013055Y015180D01*
X013092Y015178D01*
X013128Y015173D01*
X013164Y015164D01*
X013199Y015151D01*
X013232Y015136D01*
X013263Y015117D01*
X013293Y015095D01*
X013320Y015070D01*
X013345Y015043D01*
X013367Y015013D01*
X013386Y014982D01*
X013401Y014949D01*
X013414Y014914D01*
X013423Y014878D01*
X013428Y014842D01*
X013430Y014805D01*
X013430Y000555D01*
X013428Y000518D01*
X013423Y000482D01*
X013414Y000446D01*
X013401Y000411D01*
X013386Y000378D01*
X013367Y000347D01*
X013345Y000317D01*
X013320Y000290D01*
X013293Y000265D01*
X013263Y000243D01*
X013232Y000224D01*
X013199Y000209D01*
X013164Y000196D01*
X013128Y000187D01*
X013092Y000182D01*
X013055Y000180D01*
X000555Y000180D01*
X000518Y000182D01*
X000482Y000187D01*
X000446Y000196D01*
X000411Y000209D01*
X000378Y000224D01*
X000347Y000243D01*
X000317Y000265D01*
X000290Y000290D01*
X000265Y000317D01*
X000243Y000347D01*
X000224Y000378D01*
X000209Y000411D01*
X000196Y000446D01*
X000187Y000482D01*
X000182Y000518D01*
X000180Y000555D01*
D11*
X005933Y001080D02*
X005933Y003280D01*
X006033Y003380D01*
X008827Y003380D01*
X008927Y003280D01*
X008927Y001080D01*
X008827Y000980D01*
X006033Y000980D01*
X005933Y001080D01*
X007180Y002180D02*
X007182Y002193D01*
X007187Y002206D01*
X007196Y002217D01*
X007207Y002224D01*
X007220Y002229D01*
X007233Y002230D01*
X007247Y002227D01*
X007259Y002221D01*
X007269Y002212D01*
X007276Y002200D01*
X007280Y002187D01*
X007280Y002173D01*
X007276Y002160D01*
X007269Y002148D01*
X007259Y002139D01*
X007247Y002133D01*
X007233Y002130D01*
X007220Y002131D01*
X007207Y002136D01*
X007196Y002143D01*
X007187Y002154D01*
X007182Y002167D01*
X007180Y002180D01*
X009433Y001080D02*
X009433Y003280D01*
X009533Y003380D01*
X012327Y003380D01*
X012427Y003280D01*
X012427Y001080D01*
X012327Y000980D01*
X009533Y000980D01*
X009433Y001080D01*
X010680Y002180D02*
X010682Y002193D01*
X010687Y002206D01*
X010696Y002217D01*
X010707Y002224D01*
X010720Y002229D01*
X010733Y002230D01*
X010747Y002227D01*
X010759Y002221D01*
X010769Y002212D01*
X010776Y002200D01*
X010780Y002187D01*
X010780Y002173D01*
X010776Y002160D01*
X010769Y002148D01*
X010759Y002139D01*
X010747Y002133D01*
X010733Y002130D01*
X010720Y002131D01*
X010707Y002136D01*
X010696Y002143D01*
X010687Y002154D01*
X010682Y002167D01*
X010680Y002180D01*
D12*
X010973Y000837D02*
X011097Y000837D01*
X011158Y000775D01*
X010973Y000837D02*
X010911Y000775D01*
X010911Y000713D01*
X011158Y000466D01*
X010911Y000466D01*
X011280Y000466D02*
X011527Y000466D01*
X011527Y000837D01*
X007902Y000837D02*
X007902Y000466D01*
X007655Y000466D01*
X007533Y000466D02*
X007286Y000466D01*
X007410Y000466D02*
X007410Y000837D01*
X007533Y000713D01*
M02*
