G75*
%MOIN*%
%OFA0B0*%
%FSLAX24Y24*%
%IPPOS*%
%LPD*%
%AMOC8*
5,1,8,0,0,1.08239X$1,22.5*
%
%ADD10C,0.0120*%
%ADD11C,0.0030*%
%ADD12C,0.0060*%
%ADD13R,0.0900X0.0200*%
%ADD14C,0.0040*%
%ADD15C,0.0200*%
%ADD16R,0.4200X0.0300*%
%ADD17R,0.0750X0.0200*%
%ADD18R,0.0300X0.0200*%
%ADD19C,0.0050*%
%ADD20C,0.0080*%
D10*
X000180Y000555D02*
X000180Y014805D01*
X000182Y014842D01*
X000187Y014878D01*
X000196Y014914D01*
X000209Y014949D01*
X000224Y014982D01*
X000243Y015013D01*
X000265Y015043D01*
X000290Y015070D01*
X000317Y015095D01*
X000347Y015117D01*
X000378Y015136D01*
X000411Y015151D01*
X000446Y015164D01*
X000482Y015173D01*
X000518Y015178D01*
X000555Y015180D01*
X013055Y015180D01*
X013092Y015178D01*
X013128Y015173D01*
X013164Y015164D01*
X013199Y015151D01*
X013232Y015136D01*
X013263Y015117D01*
X013293Y015095D01*
X013320Y015070D01*
X013345Y015043D01*
X013367Y015013D01*
X013386Y014982D01*
X013401Y014949D01*
X013414Y014914D01*
X013423Y014878D01*
X013428Y014842D01*
X013430Y014805D01*
X013430Y000555D01*
X013428Y000518D01*
X013423Y000482D01*
X013414Y000446D01*
X013401Y000411D01*
X013386Y000378D01*
X013367Y000347D01*
X013345Y000317D01*
X013320Y000290D01*
X013293Y000265D01*
X013263Y000243D01*
X013232Y000224D01*
X013199Y000209D01*
X013164Y000196D01*
X013128Y000187D01*
X013092Y000182D01*
X013055Y000180D01*
X000555Y000180D01*
X000518Y000182D01*
X000482Y000187D01*
X000446Y000196D01*
X000411Y000209D01*
X000378Y000224D01*
X000347Y000243D01*
X000317Y000265D01*
X000290Y000290D01*
X000265Y000317D01*
X000243Y000347D01*
X000224Y000378D01*
X000209Y000411D01*
X000196Y000446D01*
X000187Y000482D01*
X000182Y000518D01*
X000180Y000555D01*
D11*
X002695Y001320D02*
X002695Y001690D01*
X002880Y001690D01*
X002942Y001629D01*
X002942Y001505D01*
X002880Y001443D01*
X002695Y001443D01*
X002818Y001443D02*
X002942Y001320D01*
X003063Y001382D02*
X003125Y001320D01*
X003248Y001320D01*
X003310Y001382D01*
X003310Y001443D01*
X003248Y001505D01*
X003187Y001505D01*
X003248Y001505D02*
X003310Y001567D01*
X003310Y001629D01*
X003248Y001690D01*
X003125Y001690D01*
X003063Y001629D01*
X007083Y003607D02*
X007145Y003545D01*
X007269Y003545D01*
X007330Y003607D01*
X007452Y003545D02*
X007699Y003545D01*
X007575Y003545D02*
X007575Y003915D01*
X007452Y003792D01*
X007330Y003854D02*
X007269Y003915D01*
X007145Y003915D01*
X007083Y003854D01*
X007083Y003607D01*
X009458Y003607D02*
X009520Y003545D01*
X009644Y003545D01*
X009705Y003607D01*
X009827Y003607D02*
X009888Y003545D01*
X010012Y003545D01*
X010074Y003607D01*
X010074Y003668D01*
X010012Y003730D01*
X009950Y003730D01*
X010012Y003730D02*
X010074Y003792D01*
X010074Y003854D01*
X010012Y003915D01*
X009888Y003915D01*
X009827Y003854D01*
X009705Y003854D02*
X009644Y003915D01*
X009520Y003915D01*
X009458Y003854D01*
X009458Y003607D01*
X009580Y006295D02*
X009457Y006418D01*
X009519Y006418D02*
X009333Y006418D01*
X009333Y006295D02*
X009333Y006665D01*
X009519Y006665D01*
X009580Y006604D01*
X009580Y006480D01*
X009519Y006418D01*
X009702Y006295D02*
X009949Y006295D01*
X009825Y006295D02*
X009825Y006665D01*
X009702Y006542D01*
X006835Y007545D02*
X006588Y007545D01*
X006835Y007792D01*
X006835Y007854D01*
X006773Y007915D01*
X006650Y007915D01*
X006588Y007854D01*
X006467Y007854D02*
X006405Y007915D01*
X006282Y007915D01*
X006220Y007854D01*
X006220Y007607D01*
X006282Y007545D01*
X006405Y007545D01*
X006467Y007607D01*
X007320Y010083D02*
X007320Y010269D01*
X007381Y010330D01*
X007505Y010330D01*
X007567Y010269D01*
X007567Y010083D01*
X007690Y010083D02*
X007320Y010083D01*
X007567Y010207D02*
X007690Y010330D01*
X007690Y010452D02*
X007628Y010452D01*
X007381Y010699D01*
X007320Y010699D01*
X007320Y010452D01*
X009708Y013045D02*
X009708Y013415D01*
X009894Y013415D01*
X009955Y013354D01*
X009955Y013230D01*
X009894Y013168D01*
X009708Y013168D01*
X009832Y013168D02*
X009955Y013045D01*
X010077Y013107D02*
X010138Y013045D01*
X010262Y013045D01*
X010324Y013107D01*
X010324Y013168D01*
X010262Y013230D01*
X010077Y013230D01*
X010077Y013107D01*
X010077Y013230D02*
X010200Y013354D01*
X010324Y013415D01*
X010248Y013945D02*
X010125Y013945D01*
X010063Y014007D01*
X010063Y014130D02*
X010187Y014192D01*
X010248Y014192D01*
X010310Y014130D01*
X010310Y014007D01*
X010248Y013945D01*
X010063Y014130D02*
X010063Y014315D01*
X010310Y014315D01*
X009942Y014254D02*
X009942Y014130D01*
X009880Y014068D01*
X009695Y014068D01*
X009695Y013945D02*
X009695Y014315D01*
X009880Y014315D01*
X009942Y014254D01*
X009818Y014068D02*
X009942Y013945D01*
X005683Y014167D02*
X005586Y014070D01*
X005490Y014167D01*
X005490Y014360D01*
X005388Y014312D02*
X005195Y014118D01*
X005243Y014070D01*
X005340Y014070D01*
X005388Y014118D01*
X005388Y014312D01*
X005340Y014360D01*
X005243Y014360D01*
X005195Y014312D01*
X005195Y014118D01*
X005683Y014167D02*
X005683Y014360D01*
X002906Y014360D02*
X002906Y014167D01*
X002810Y014070D01*
X002713Y014167D01*
X002713Y014360D01*
X002612Y014360D02*
X002418Y014360D01*
X002418Y014215D01*
X002515Y014263D01*
X002563Y014263D01*
X002612Y014215D01*
X002612Y014118D01*
X002563Y014070D01*
X002467Y014070D01*
X002418Y014118D01*
X002317Y014215D02*
X002124Y014215D01*
X002269Y014360D01*
X002269Y014070D01*
X002022Y014215D02*
X001829Y014215D01*
X001728Y014312D02*
X001534Y014118D01*
X001534Y014070D01*
X001433Y014070D02*
X001240Y014070D01*
X001433Y014263D01*
X001433Y014312D01*
X001385Y014360D01*
X001288Y014360D01*
X001240Y014312D01*
X001138Y014215D02*
X000945Y014215D01*
X001042Y014312D02*
X001042Y014118D01*
X001534Y014360D02*
X001728Y014360D01*
X001728Y014312D01*
X003070Y011190D02*
X003255Y011190D01*
X003317Y011129D01*
X003317Y011005D01*
X003255Y010943D01*
X003070Y010943D01*
X003070Y010820D02*
X003070Y011190D01*
X003193Y010943D02*
X003317Y010820D01*
X003438Y011005D02*
X003685Y011005D01*
X003623Y010820D02*
X003623Y011190D01*
X003438Y011005D01*
X003513Y010165D02*
X003452Y010104D01*
X003513Y010165D02*
X003637Y010165D01*
X003699Y010104D01*
X003699Y010042D01*
X003452Y009795D01*
X003699Y009795D01*
X003330Y009795D02*
X003207Y009918D01*
X003269Y009918D02*
X003083Y009918D01*
X003083Y009795D02*
X003083Y010165D01*
X003269Y010165D01*
X003330Y010104D01*
X003330Y009980D01*
X003269Y009918D01*
D12*
X001430Y008480D02*
X001480Y007330D01*
X001580Y007230D01*
X005280Y007230D01*
X005380Y007330D01*
X005430Y008480D01*
X005630Y007180D02*
X005630Y005280D01*
X006130Y005280D02*
X006128Y005233D01*
X006123Y005186D01*
X006113Y005140D01*
X006101Y005095D01*
X006084Y005050D01*
X006065Y005008D01*
X006042Y004967D01*
X006015Y004927D01*
X005986Y004890D01*
X005954Y004856D01*
X005920Y004824D01*
X005883Y004795D01*
X005843Y004768D01*
X005802Y004745D01*
X005760Y004726D01*
X005715Y004709D01*
X005670Y004697D01*
X005624Y004687D01*
X005577Y004682D01*
X005530Y004680D01*
X003980Y004680D01*
X003830Y005180D02*
X005530Y005180D01*
X005547Y005182D01*
X005564Y005186D01*
X005580Y005193D01*
X005594Y005203D01*
X005607Y005216D01*
X005617Y005230D01*
X005624Y005246D01*
X005628Y005263D01*
X005630Y005280D01*
X006130Y005280D02*
X006130Y007180D01*
X005630Y007180D01*
X003030Y005180D02*
X001330Y005180D01*
X001330Y004680D02*
X001283Y004682D01*
X001236Y004687D01*
X001190Y004697D01*
X001145Y004709D01*
X001100Y004726D01*
X001058Y004745D01*
X001017Y004768D01*
X000977Y004795D01*
X000940Y004824D01*
X000906Y004856D01*
X000874Y004890D01*
X000845Y004927D01*
X000818Y004967D01*
X000795Y005008D01*
X000776Y005050D01*
X000759Y005095D01*
X000747Y005140D01*
X000737Y005186D01*
X000732Y005233D01*
X000730Y005280D01*
X000730Y007180D01*
X001230Y007180D01*
X001230Y005280D01*
X001232Y005263D01*
X001236Y005246D01*
X001243Y005230D01*
X001253Y005216D01*
X001266Y005203D01*
X001280Y005193D01*
X001296Y005186D01*
X001313Y005182D01*
X001330Y005180D01*
X001330Y004680D02*
X002880Y004680D01*
X001430Y003980D02*
X001480Y002830D01*
X001580Y002730D01*
X005280Y002730D01*
X005380Y002830D01*
X005430Y003980D01*
X001560Y002970D02*
X001562Y002990D01*
X001568Y003008D01*
X001577Y003026D01*
X001589Y003041D01*
X001604Y003053D01*
X001622Y003062D01*
X001640Y003068D01*
X001660Y003070D01*
X001680Y003068D01*
X001698Y003062D01*
X001716Y003053D01*
X001731Y003041D01*
X001743Y003026D01*
X001752Y003008D01*
X001758Y002990D01*
X001760Y002970D01*
X001758Y002950D01*
X001752Y002932D01*
X001743Y002914D01*
X001731Y002899D01*
X001716Y002887D01*
X001698Y002878D01*
X001680Y002872D01*
X001660Y002870D01*
X001640Y002872D01*
X001622Y002878D01*
X001604Y002887D01*
X001589Y002899D01*
X001577Y002914D01*
X001568Y002932D01*
X001562Y002950D01*
X001560Y002970D01*
X008430Y009280D02*
X008430Y010030D01*
X008469Y010032D01*
X008508Y010038D01*
X008546Y010047D01*
X008583Y010060D01*
X008619Y010077D01*
X008652Y010097D01*
X008684Y010121D01*
X008713Y010147D01*
X008739Y010176D01*
X008763Y010208D01*
X008783Y010241D01*
X008800Y010277D01*
X008813Y010314D01*
X008822Y010352D01*
X008828Y010391D01*
X008830Y010430D01*
X008828Y010469D01*
X008822Y010508D01*
X008813Y010546D01*
X008800Y010583D01*
X008783Y010619D01*
X008763Y010652D01*
X008739Y010684D01*
X008713Y010713D01*
X008684Y010739D01*
X008652Y010763D01*
X008619Y010783D01*
X008583Y010800D01*
X008546Y010813D01*
X008508Y010822D01*
X008469Y010828D01*
X008430Y010830D01*
X008430Y011580D01*
X012430Y011580D01*
X012430Y009280D01*
X008430Y009280D01*
D13*
X004430Y004580D03*
X002430Y004580D03*
D14*
X001290Y003809D02*
X001290Y003568D01*
X001290Y003688D02*
X000930Y003688D01*
X001050Y003568D01*
X000930Y003440D02*
X000930Y003200D01*
X000930Y003320D02*
X001290Y003320D01*
X001105Y007700D02*
X000865Y007700D01*
X000805Y007760D01*
X000805Y007880D01*
X000865Y007940D01*
X001105Y007940D01*
X001165Y007880D01*
X001165Y007760D01*
X001105Y007700D01*
X001045Y007820D02*
X001165Y007940D01*
X001165Y008068D02*
X001165Y008309D01*
X001165Y008188D02*
X000805Y008188D01*
X000925Y008068D01*
X006450Y012273D02*
X006510Y012213D01*
X006570Y012213D01*
X006630Y012273D01*
X006630Y012394D01*
X006690Y012454D01*
X006750Y012454D01*
X006810Y012394D01*
X006810Y012273D01*
X006750Y012213D01*
X006450Y012273D02*
X006450Y012394D01*
X006510Y012454D01*
X006570Y012582D02*
X006450Y012702D01*
X006810Y012702D01*
X006810Y012582D02*
X006810Y012822D01*
X009118Y010310D02*
X009238Y010310D01*
X009178Y010310D02*
X009178Y009950D01*
X009118Y009950D02*
X009238Y009950D01*
X009363Y010010D02*
X009423Y009950D01*
X009544Y009950D01*
X009604Y010010D01*
X009732Y009950D02*
X009972Y009950D01*
X009852Y009950D02*
X009852Y010310D01*
X009732Y010190D01*
X009604Y010250D02*
X009544Y010310D01*
X009423Y010310D01*
X009363Y010250D01*
X009363Y010010D01*
D15*
X001660Y007470D03*
D16*
X003430Y008780D03*
X003430Y004280D03*
D17*
X005155Y004030D03*
X001705Y004030D03*
X001705Y008530D03*
X005155Y008530D03*
D18*
X003930Y008530D03*
X002930Y008530D03*
X002930Y004030D03*
X003930Y004030D03*
D19*
X010180Y005680D02*
X010180Y007680D01*
X012180Y007680D01*
X012180Y005680D01*
X010180Y005680D01*
X010680Y006680D02*
X011180Y006680D01*
X010389Y006680D02*
X010391Y006736D01*
X010397Y006791D01*
X010407Y006846D01*
X010420Y006900D01*
X010438Y006953D01*
X010459Y007005D01*
X010484Y007055D01*
X010512Y007103D01*
X010543Y007149D01*
X010578Y007193D01*
X010616Y007234D01*
X010656Y007273D01*
X010699Y007308D01*
X010745Y007341D01*
X010793Y007370D01*
X010842Y007395D01*
X010893Y007417D01*
X010946Y007436D01*
X011000Y007450D01*
X011055Y007461D01*
X011110Y007468D01*
X011166Y007471D01*
X011222Y007470D01*
X011277Y007465D01*
X011333Y007456D01*
X011387Y007443D01*
X011440Y007427D01*
X011492Y007407D01*
X011543Y007383D01*
X011592Y007356D01*
X011638Y007325D01*
X011682Y007291D01*
X011724Y007254D01*
X011763Y007214D01*
X011800Y007172D01*
X011833Y007127D01*
X011863Y007080D01*
X011889Y007030D01*
X011912Y006979D01*
X011931Y006927D01*
X011947Y006873D01*
X011959Y006819D01*
X011967Y006764D01*
X011971Y006708D01*
X011971Y006652D01*
X011967Y006596D01*
X011959Y006541D01*
X011947Y006487D01*
X011931Y006433D01*
X011912Y006381D01*
X011889Y006330D01*
X011863Y006280D01*
X011833Y006233D01*
X011800Y006188D01*
X011763Y006146D01*
X011724Y006106D01*
X011682Y006069D01*
X011638Y006035D01*
X011592Y006004D01*
X011543Y005977D01*
X011492Y005953D01*
X011440Y005933D01*
X011387Y005917D01*
X011333Y005904D01*
X011277Y005895D01*
X011222Y005890D01*
X011166Y005889D01*
X011110Y005892D01*
X011055Y005899D01*
X011000Y005910D01*
X010946Y005924D01*
X010893Y005943D01*
X010842Y005965D01*
X010793Y005990D01*
X010745Y006019D01*
X010699Y006052D01*
X010656Y006087D01*
X010616Y006126D01*
X010578Y006167D01*
X010543Y006211D01*
X010512Y006257D01*
X010484Y006305D01*
X010459Y006355D01*
X010438Y006407D01*
X010420Y006460D01*
X010407Y006514D01*
X010397Y006569D01*
X010391Y006624D01*
X010389Y006680D01*
X011180Y006680D02*
X011180Y006180D01*
X011180Y006680D02*
X011680Y006680D01*
X011180Y006680D02*
X011180Y007180D01*
D20*
X010930Y005180D02*
X010930Y004180D01*
X008930Y004180D01*
X008930Y005180D01*
X010930Y005180D01*
X009930Y004930D02*
X009930Y004430D01*
X008430Y004180D02*
X008430Y005180D01*
X006430Y005180D01*
X006430Y004180D01*
X008430Y004180D01*
X007430Y004430D02*
X007430Y004930D01*
X006946Y007180D02*
X006948Y007242D01*
X006954Y007305D01*
X006964Y007366D01*
X006978Y007427D01*
X006995Y007487D01*
X007016Y007546D01*
X007042Y007603D01*
X007070Y007658D01*
X007102Y007712D01*
X007138Y007763D01*
X007176Y007813D01*
X007218Y007859D01*
X007262Y007903D01*
X007310Y007944D01*
X007359Y007982D01*
X007411Y008016D01*
X007465Y008047D01*
X007521Y008075D01*
X007579Y008099D01*
X007638Y008120D01*
X007698Y008136D01*
X007759Y008149D01*
X007821Y008158D01*
X007883Y008163D01*
X007946Y008164D01*
X008008Y008161D01*
X008070Y008154D01*
X008132Y008143D01*
X008192Y008128D01*
X008252Y008110D01*
X008310Y008088D01*
X008367Y008062D01*
X008422Y008032D01*
X008475Y007999D01*
X008526Y007963D01*
X008574Y007924D01*
X008620Y007881D01*
X008663Y007836D01*
X008703Y007788D01*
X008740Y007738D01*
X008774Y007685D01*
X008805Y007631D01*
X008831Y007575D01*
X008855Y007517D01*
X008874Y007457D01*
X008890Y007397D01*
X008902Y007335D01*
X008910Y007274D01*
X008914Y007211D01*
X008914Y007149D01*
X008910Y007086D01*
X008902Y007025D01*
X008890Y006963D01*
X008874Y006903D01*
X008855Y006843D01*
X008831Y006785D01*
X008805Y006729D01*
X008774Y006675D01*
X008740Y006622D01*
X008703Y006572D01*
X008663Y006524D01*
X008620Y006479D01*
X008574Y006436D01*
X008526Y006397D01*
X008475Y006361D01*
X008422Y006328D01*
X008367Y006298D01*
X008310Y006272D01*
X008252Y006250D01*
X008192Y006232D01*
X008132Y006217D01*
X008070Y006206D01*
X008008Y006199D01*
X007946Y006196D01*
X007883Y006197D01*
X007821Y006202D01*
X007759Y006211D01*
X007698Y006224D01*
X007638Y006240D01*
X007579Y006261D01*
X007521Y006285D01*
X007465Y006313D01*
X007411Y006344D01*
X007359Y006378D01*
X007310Y006416D01*
X007262Y006457D01*
X007218Y006501D01*
X007176Y006547D01*
X007138Y006597D01*
X007102Y006648D01*
X007070Y006702D01*
X007042Y006757D01*
X007016Y006814D01*
X006995Y006873D01*
X006978Y006933D01*
X006964Y006994D01*
X006954Y007055D01*
X006948Y007118D01*
X006946Y007180D01*
X007230Y007730D02*
X007630Y007730D01*
X007430Y009330D02*
X007430Y009430D01*
X007130Y009430D01*
X007130Y011430D01*
X007430Y011430D01*
X007430Y011530D01*
X007430Y011430D02*
X007730Y011430D01*
X007730Y009430D01*
X007430Y009430D01*
X006219Y011574D02*
X001641Y011574D01*
X001641Y013286D01*
X006219Y013286D01*
X006219Y011574D01*
X004530Y010930D02*
X004430Y010930D01*
X004430Y010630D01*
X002430Y010630D01*
X002430Y010930D01*
X002330Y010930D01*
X002430Y010930D02*
X002430Y011230D01*
X004430Y011230D01*
X004430Y010930D01*
X004430Y010230D02*
X004430Y009930D01*
X004530Y009930D01*
X004430Y009930D02*
X004430Y009630D01*
X002430Y009630D01*
X002430Y009930D01*
X002330Y009930D01*
X002430Y009930D02*
X002430Y010230D01*
X004430Y010230D01*
X004180Y013680D02*
X003930Y013930D01*
X003680Y013680D01*
X003180Y013680D01*
X002930Y013930D01*
X002930Y014430D01*
X003180Y014680D01*
X003680Y014680D01*
X003930Y014430D01*
X004180Y014680D01*
X004680Y014680D01*
X004930Y014430D01*
X004930Y013930D01*
X004680Y013680D01*
X004180Y013680D01*
X008830Y013180D02*
X008930Y013180D01*
X008930Y013480D01*
X010930Y013480D01*
X010930Y013180D01*
X011030Y013180D01*
X010930Y013180D02*
X010930Y012880D01*
X008930Y012880D01*
X008930Y013180D01*
X008930Y013880D02*
X008930Y014180D01*
X008830Y014180D01*
X008930Y014180D02*
X008930Y014480D01*
X010930Y014480D01*
X010930Y014180D01*
X011030Y014180D01*
X010930Y014180D02*
X010930Y013880D01*
X008930Y013880D01*
X003930Y001730D02*
X001930Y001730D01*
X001930Y001430D01*
X001830Y001430D01*
X001930Y001430D02*
X001930Y001130D01*
X003930Y001130D01*
X003930Y001430D01*
X004030Y001430D01*
X003930Y001430D02*
X003930Y001730D01*
M02*
