%
M48
M72
T01C0.0276
T02C0.0320
T03C0.0354
T04C0.0394
T05C0.0400
T06C0.0710
%
T01
X6930Y4680
X7930Y4680
X9430Y4680
X10430Y4680
X8430Y7180
X7430Y7180
T02
X8930Y8930
X9930Y8930
X10930Y8930
X11930Y8930
X11930Y11930
X10930Y11930
X9930Y11930
X8930Y11930
T03
X1430Y1430
X4430Y1430
X7430Y8930
X4930Y9930
X4930Y10930
X7430Y11930
X8430Y13180
X8430Y14180
X11430Y14180
X11430Y13180
X11680Y3805
X1930Y9930
X1930Y10930
T04
X10180Y7680
X11180Y5680
X12180Y7680
T05
X2430Y3430
X3430Y3430
X4430Y3430
X4430Y7930
X3430Y7930
X2430Y7930
X2930Y12430
X3930Y12430
X4930Y12430
X4430Y14180
X3430Y14180
T06
X3430Y4780
M30
