G75*
%MOIN*%
%OFA0B0*%
%FSLAX24Y24*%
%IPPOS*%
%LPD*%
%AMOC8*
5,1,8,0,0,1.08239X$1,22.5*
%
%ADD10C,0.0120*%
%ADD11C,0.1065*%
%ADD12C,0.0660*%
%ADD13C,0.0600*%
%ADD14C,0.0740*%
%ADD15C,0.0650*%
%ADD16R,0.0650X0.0650*%
%ADD17R,0.1043X0.1969*%
%ADD18C,0.0320*%
%ADD19C,0.0531*%
%ADD20C,0.0160*%
D10*
X000180Y000555D02*
X000180Y014805D01*
X000182Y014842D01*
X000187Y014878D01*
X000196Y014914D01*
X000209Y014949D01*
X000224Y014982D01*
X000243Y015013D01*
X000265Y015043D01*
X000290Y015070D01*
X000317Y015095D01*
X000347Y015117D01*
X000378Y015136D01*
X000411Y015151D01*
X000446Y015164D01*
X000482Y015173D01*
X000518Y015178D01*
X000555Y015180D01*
X013055Y015180D01*
X013092Y015178D01*
X013128Y015173D01*
X013164Y015164D01*
X013199Y015151D01*
X013232Y015136D01*
X013263Y015117D01*
X013293Y015095D01*
X013320Y015070D01*
X013345Y015043D01*
X013367Y015013D01*
X013386Y014982D01*
X013401Y014949D01*
X013414Y014914D01*
X013423Y014878D01*
X013428Y014842D01*
X013430Y014805D01*
X013430Y000555D01*
X013428Y000518D01*
X013423Y000482D01*
X013414Y000446D01*
X013401Y000411D01*
X013386Y000378D01*
X013367Y000347D01*
X013345Y000317D01*
X013320Y000290D01*
X013293Y000265D01*
X013263Y000243D01*
X013232Y000224D01*
X013199Y000209D01*
X013164Y000196D01*
X013128Y000187D01*
X013092Y000182D01*
X013055Y000180D01*
X000555Y000180D01*
X000518Y000182D01*
X000482Y000187D01*
X000446Y000196D01*
X000411Y000209D01*
X000378Y000224D01*
X000347Y000243D01*
X000317Y000265D01*
X000290Y000290D01*
X000265Y000317D01*
X000243Y000347D01*
X000224Y000378D01*
X000209Y000411D01*
X000196Y000446D01*
X000187Y000482D01*
X000182Y000518D01*
X000180Y000555D01*
D11*
X003430Y004780D03*
D12*
X008930Y008930D03*
X009930Y008930D03*
X010930Y008930D03*
X011930Y008930D03*
X011930Y011930D03*
X010930Y011930D03*
X009930Y011930D03*
X008930Y011930D03*
D13*
X004430Y008230D02*
X004430Y007630D01*
X003430Y007630D02*
X003430Y008230D01*
X002430Y008230D02*
X002430Y007630D01*
X002430Y003730D02*
X002430Y003130D01*
X003430Y003130D02*
X003430Y003730D01*
X004430Y003730D02*
X004430Y003130D01*
D14*
X004430Y001430D03*
X001430Y001430D03*
X007430Y008930D03*
X004930Y009930D03*
X004930Y010930D03*
X004930Y012430D03*
X003930Y012430D03*
X002930Y012430D03*
X001930Y010930D03*
X001930Y009930D03*
X003430Y014180D03*
X004430Y014180D03*
X007430Y011930D03*
X008430Y013180D03*
X008430Y014180D03*
X011430Y014180D03*
X011430Y013180D03*
X012180Y007680D03*
X011180Y005680D03*
X010180Y007680D03*
D15*
X007430Y007180D03*
X006930Y004680D03*
X007930Y004680D03*
X009430Y004680D03*
X010430Y004680D03*
D16*
X008430Y007180D03*
D17*
X008284Y002180D03*
X006576Y002180D03*
X010076Y002180D03*
X011784Y002180D03*
D18*
X011784Y003701D01*
X011680Y003805D01*
X010430Y004680D02*
X010430Y004930D01*
X009930Y005430D01*
X007930Y005430D01*
X007930Y004680D01*
X007930Y005430D02*
X006430Y005430D01*
X005680Y006180D01*
X005430Y005930D01*
X005430Y002305D01*
X004555Y001430D01*
X004430Y001430D01*
X003430Y002430D01*
X003430Y003430D01*
X003430Y003555D01*
X002430Y003430D02*
X002430Y002430D01*
X001430Y001430D01*
X005680Y006180D02*
X005680Y008680D01*
X005305Y009055D01*
X004555Y009055D01*
X003930Y009680D01*
X003930Y012430D01*
X002930Y012430D02*
X002930Y013680D01*
X003430Y014180D01*
X006930Y004680D02*
X006576Y004326D01*
X006576Y002180D01*
X008284Y002180D02*
X008284Y003534D01*
X009430Y004680D01*
D19*
X011680Y003805D03*
D20*
X011302Y004143D02*
X010609Y004143D01*
X010542Y004115D02*
X010750Y004201D01*
X010909Y004360D01*
X010995Y004568D01*
X010995Y004792D01*
X010909Y005000D01*
X010781Y005128D01*
X010769Y005157D01*
X010269Y005657D01*
X010189Y005737D01*
X011111Y006659D01*
X011201Y006749D01*
X011250Y006866D01*
X011250Y008446D01*
X011253Y008447D01*
X011413Y008607D01*
X011430Y008648D01*
X011447Y008607D01*
X011607Y008447D01*
X011817Y008360D01*
X012043Y008360D01*
X012253Y008447D01*
X012360Y008554D01*
X012360Y008313D01*
X012327Y008279D01*
X012301Y008290D01*
X012059Y008290D01*
X011834Y008197D01*
X011663Y008026D01*
X011570Y007801D01*
X011570Y007559D01*
X011663Y007334D01*
X011834Y007163D01*
X011860Y007152D01*
X011860Y006813D01*
X011327Y006279D01*
X011301Y006290D01*
X011059Y006290D01*
X010834Y006197D01*
X010663Y006026D01*
X010570Y005801D01*
X010570Y005559D01*
X010663Y005334D01*
X010834Y005163D01*
X011059Y005070D01*
X011301Y005070D01*
X011526Y005163D01*
X011697Y005334D01*
X011790Y005559D01*
X011790Y005801D01*
X011779Y005827D01*
X012361Y006409D01*
X012451Y006499D01*
X012500Y006616D01*
X012500Y007152D01*
X012526Y007163D01*
X012697Y007334D01*
X012790Y007559D01*
X012790Y007801D01*
X012779Y007827D01*
X012861Y007909D01*
X012951Y007999D01*
X013000Y008116D01*
X013000Y012619D01*
X012951Y012736D01*
X012326Y013361D01*
X012236Y013451D01*
X012119Y013500D01*
X011958Y013500D01*
X011947Y013526D01*
X011793Y013680D01*
X011947Y013834D01*
X012040Y014059D01*
X012040Y014301D01*
X011947Y014526D01*
X011776Y014697D01*
X011551Y014790D01*
X011309Y014790D01*
X011283Y014779D01*
X011183Y014880D01*
X013055Y014880D01*
X013070Y014879D01*
X013097Y014867D01*
X013117Y014847D01*
X013129Y014820D01*
X013130Y014805D01*
X013130Y000555D01*
X013129Y000540D01*
X013117Y000513D01*
X013097Y000493D01*
X013070Y000481D01*
X013055Y000480D01*
X000555Y000480D01*
X000540Y000481D01*
X000513Y000493D01*
X000493Y000513D01*
X000481Y000540D01*
X000480Y000555D01*
X000480Y014805D01*
X000481Y014820D01*
X000493Y014847D01*
X000513Y014867D01*
X000540Y014879D01*
X000555Y014880D01*
X005802Y014880D01*
X004963Y014041D01*
X004966Y014051D01*
X004980Y014137D01*
X004980Y014160D01*
X004450Y014160D01*
X004450Y014200D01*
X004410Y014200D01*
X004410Y014730D01*
X004387Y014730D01*
X004301Y014716D01*
X004219Y014690D01*
X004142Y014650D01*
X004072Y014600D01*
X004010Y014538D01*
X003967Y014478D01*
X003947Y014526D01*
X003776Y014697D01*
X003551Y014790D01*
X003309Y014790D01*
X003084Y014697D01*
X002913Y014526D01*
X002820Y014301D01*
X002820Y014136D01*
X002703Y014019D01*
X002591Y013907D01*
X002530Y013760D01*
X002530Y012893D01*
X002413Y012776D01*
X002320Y012551D01*
X002320Y012309D01*
X002413Y012084D01*
X002584Y011913D01*
X002809Y011820D01*
X003051Y011820D01*
X003276Y011913D01*
X003430Y012067D01*
X003530Y011967D01*
X003530Y009600D01*
X003591Y009453D01*
X004216Y008828D01*
X004328Y008716D01*
X004356Y008704D01*
X004318Y008698D01*
X004246Y008675D01*
X004178Y008641D01*
X004117Y008596D01*
X004064Y008543D01*
X004019Y008482D01*
X003985Y008414D01*
X003965Y008351D01*
X003888Y008536D01*
X003736Y008688D01*
X003537Y008770D01*
X003323Y008770D01*
X003124Y008688D01*
X002972Y008536D01*
X002930Y008434D01*
X002888Y008536D01*
X002750Y008674D01*
X002750Y009494D01*
X002701Y009611D01*
X002611Y009701D01*
X002529Y009783D01*
X002540Y009809D01*
X002540Y010051D01*
X002447Y010276D01*
X002293Y010430D01*
X002447Y010584D01*
X002540Y010809D01*
X002540Y011051D01*
X002447Y011276D01*
X002276Y011447D01*
X002051Y011540D01*
X001809Y011540D01*
X001584Y011447D01*
X001413Y011276D01*
X001320Y011051D01*
X001320Y010809D01*
X001413Y010584D01*
X001567Y010430D01*
X001413Y010276D01*
X001320Y010051D01*
X001320Y009809D01*
X001413Y009584D01*
X001584Y009413D01*
X001809Y009320D01*
X002051Y009320D01*
X002077Y009331D01*
X002110Y009297D01*
X002110Y008674D01*
X001972Y008536D01*
X001890Y008337D01*
X001890Y007523D01*
X001972Y007324D01*
X002124Y007172D01*
X002323Y007090D01*
X002537Y007090D01*
X002736Y007172D01*
X002888Y007324D01*
X002930Y007426D01*
X002972Y007324D01*
X003124Y007172D01*
X003323Y007090D01*
X003537Y007090D01*
X003736Y007172D01*
X003888Y007324D01*
X003965Y007509D01*
X003985Y007446D01*
X004019Y007378D01*
X004064Y007317D01*
X004117Y007264D01*
X004178Y007219D01*
X004246Y007185D01*
X004318Y007162D01*
X004392Y007150D01*
X004410Y007150D01*
X004410Y007910D01*
X004450Y007910D01*
X004450Y007950D01*
X004910Y007950D01*
X004910Y008268D01*
X004898Y008342D01*
X004875Y008414D01*
X004841Y008482D01*
X004796Y008543D01*
X004743Y008596D01*
X004682Y008641D01*
X004653Y008655D01*
X005139Y008655D01*
X005280Y008514D01*
X005280Y006346D01*
X005203Y006269D01*
X005091Y006157D01*
X005030Y006010D01*
X005030Y002471D01*
X004585Y002026D01*
X004551Y002040D01*
X004386Y002040D01*
X003830Y002596D01*
X003830Y002766D01*
X003888Y002824D01*
X003930Y002926D01*
X003972Y002824D01*
X004124Y002672D01*
X004323Y002590D01*
X004537Y002590D01*
X004736Y002672D01*
X004888Y002824D01*
X004970Y003023D01*
X004970Y003837D01*
X004888Y004036D01*
X004736Y004188D01*
X004537Y004270D01*
X004323Y004270D01*
X004124Y004188D01*
X003972Y004036D01*
X003930Y003934D01*
X003888Y004036D01*
X003819Y004105D01*
X003868Y004125D01*
X004085Y004342D01*
X004202Y004626D01*
X004202Y004934D01*
X004085Y005218D01*
X003868Y005435D01*
X003584Y005552D01*
X003276Y005552D01*
X002992Y005435D01*
X002775Y005218D01*
X002658Y004934D01*
X002658Y004626D01*
X002775Y004342D01*
X002992Y004125D01*
X003041Y004105D01*
X002972Y004036D01*
X002930Y003934D01*
X002888Y004036D01*
X002736Y004188D01*
X002537Y004270D01*
X002323Y004270D01*
X002124Y004188D01*
X001972Y004036D01*
X001890Y003837D01*
X001890Y003023D01*
X001972Y002824D01*
X002030Y002766D01*
X002030Y002596D01*
X001474Y002040D01*
X001309Y002040D01*
X001084Y001947D01*
X000913Y001776D01*
X000820Y001551D01*
X000820Y001309D01*
X000913Y001084D01*
X001084Y000913D01*
X001309Y000820D01*
X001551Y000820D01*
X001776Y000913D01*
X001947Y001084D01*
X002040Y001309D01*
X002040Y001474D01*
X002657Y002091D01*
X002769Y002203D01*
X002830Y002350D01*
X002830Y002766D01*
X002888Y002824D01*
X002930Y002926D01*
X002972Y002824D01*
X003030Y002766D01*
X003030Y002350D01*
X003091Y002203D01*
X003203Y002091D01*
X003820Y001474D01*
X003820Y001309D01*
X003913Y001084D01*
X004084Y000913D01*
X004309Y000820D01*
X004551Y000820D01*
X004776Y000913D01*
X004947Y001084D01*
X005040Y001309D01*
X005040Y001349D01*
X005769Y002078D01*
X005814Y002187D01*
X005814Y001148D01*
X005851Y001060D01*
X005918Y000992D01*
X006006Y000956D01*
X007145Y000956D01*
X007233Y000992D01*
X007301Y001060D01*
X007337Y001148D01*
X007337Y003212D01*
X007301Y003300D01*
X007233Y003368D01*
X007145Y003404D01*
X006976Y003404D01*
X006976Y004115D01*
X007042Y004115D01*
X007250Y004201D01*
X007409Y004360D01*
X007430Y004411D01*
X007451Y004360D01*
X007610Y004201D01*
X007818Y004115D01*
X008042Y004115D01*
X008250Y004201D01*
X008409Y004360D01*
X008495Y004568D01*
X008495Y004792D01*
X008409Y005000D01*
X008379Y005030D01*
X008981Y005030D01*
X008951Y005000D01*
X008865Y004792D01*
X008865Y004681D01*
X007945Y003761D01*
X007884Y003614D01*
X007884Y003404D01*
X007715Y003404D01*
X007627Y003368D01*
X007559Y003300D01*
X007523Y003212D01*
X007523Y001148D01*
X007559Y001060D01*
X007627Y000992D01*
X007715Y000956D01*
X008854Y000956D01*
X008942Y000992D01*
X009009Y001060D01*
X009046Y001148D01*
X009046Y003212D01*
X009009Y003300D01*
X008942Y003368D01*
X008854Y003404D01*
X008720Y003404D01*
X009431Y004115D01*
X009542Y004115D01*
X009750Y004201D01*
X009909Y004360D01*
X009930Y004411D01*
X009951Y004360D01*
X010110Y004201D01*
X010318Y004115D01*
X010542Y004115D01*
X010251Y004143D02*
X009609Y004143D01*
X009850Y004301D02*
X010010Y004301D01*
X009300Y003984D02*
X011207Y003984D01*
X011174Y003906D02*
X011174Y003704D01*
X011251Y003519D01*
X011366Y003404D01*
X011215Y003404D01*
X011127Y003368D01*
X011059Y003300D01*
X011023Y003212D01*
X011023Y001148D01*
X011059Y001060D01*
X011127Y000992D01*
X011215Y000956D01*
X012354Y000956D01*
X012442Y000992D01*
X012509Y001060D01*
X012546Y001148D01*
X012546Y003212D01*
X012509Y003300D01*
X012442Y003368D01*
X012354Y003404D01*
X012184Y003404D01*
X012184Y003701D01*
X012186Y003704D01*
X012186Y003906D01*
X012109Y004091D01*
X011966Y004234D01*
X011781Y004311D01*
X011579Y004311D01*
X011394Y004234D01*
X011251Y004091D01*
X011174Y003906D01*
X011174Y003826D02*
X009141Y003826D01*
X008983Y003667D02*
X011190Y003667D01*
X011261Y003509D02*
X008824Y003509D01*
X008960Y003350D02*
X009400Y003350D01*
X009418Y003368D02*
X009351Y003300D01*
X009314Y003212D01*
X009314Y001148D01*
X009351Y001060D01*
X009418Y000992D01*
X009506Y000956D01*
X010645Y000956D01*
X010733Y000992D01*
X010801Y001060D01*
X010837Y001148D01*
X010837Y003212D01*
X010801Y003300D01*
X010733Y003368D01*
X010645Y003404D01*
X009506Y003404D01*
X009418Y003368D01*
X009314Y003192D02*
X009046Y003192D01*
X009046Y003033D02*
X009314Y003033D01*
X009314Y002875D02*
X009046Y002875D01*
X009046Y002716D02*
X009314Y002716D01*
X009314Y002558D02*
X009046Y002558D01*
X009046Y002399D02*
X009314Y002399D01*
X009314Y002241D02*
X009046Y002241D01*
X009046Y002082D02*
X009314Y002082D01*
X009314Y001924D02*
X009046Y001924D01*
X009046Y001765D02*
X009314Y001765D01*
X009314Y001607D02*
X009046Y001607D01*
X009046Y001448D02*
X009314Y001448D01*
X009314Y001290D02*
X009046Y001290D01*
X009039Y001131D02*
X009321Y001131D01*
X009466Y000973D02*
X008894Y000973D01*
X007674Y000973D02*
X007186Y000973D01*
X007330Y001131D02*
X007530Y001131D01*
X007523Y001290D02*
X007337Y001290D01*
X007337Y001448D02*
X007523Y001448D01*
X007523Y001607D02*
X007337Y001607D01*
X007337Y001765D02*
X007523Y001765D01*
X007523Y001924D02*
X007337Y001924D01*
X007337Y002082D02*
X007523Y002082D01*
X007523Y002241D02*
X007337Y002241D01*
X007337Y002399D02*
X007523Y002399D01*
X007523Y002558D02*
X007337Y002558D01*
X007337Y002716D02*
X007523Y002716D01*
X007523Y002875D02*
X007337Y002875D01*
X007337Y003033D02*
X007523Y003033D01*
X007523Y003192D02*
X007337Y003192D01*
X007251Y003350D02*
X007609Y003350D01*
X007884Y003509D02*
X006976Y003509D01*
X006976Y003667D02*
X007906Y003667D01*
X008010Y003826D02*
X006976Y003826D01*
X006976Y003984D02*
X008168Y003984D01*
X008109Y004143D02*
X008327Y004143D01*
X008350Y004301D02*
X008485Y004301D01*
X008450Y004460D02*
X008644Y004460D01*
X008495Y004618D02*
X008802Y004618D01*
X008865Y004777D02*
X008495Y004777D01*
X008436Y004935D02*
X008924Y004935D01*
X009930Y005930D02*
X010930Y006930D01*
X010930Y008930D01*
X010953Y009500D02*
X011111Y009659D01*
X011201Y009749D01*
X011250Y009866D01*
X011250Y011446D01*
X011253Y011447D01*
X011413Y011607D01*
X011430Y011648D01*
X011447Y011607D01*
X011607Y011447D01*
X011817Y011360D01*
X012043Y011360D01*
X012253Y011447D01*
X012360Y011554D01*
X012360Y009306D01*
X012253Y009413D01*
X012043Y009500D01*
X011817Y009500D01*
X011607Y009413D01*
X011447Y009253D01*
X011430Y009212D01*
X011413Y009253D01*
X011253Y009413D01*
X011043Y009500D01*
X010953Y009500D01*
X010984Y009532D02*
X012360Y009532D01*
X012360Y009690D02*
X011143Y009690D01*
X011243Y009849D02*
X012360Y009849D01*
X012360Y010007D02*
X011250Y010007D01*
X011250Y010166D02*
X012360Y010166D01*
X012360Y010324D02*
X011250Y010324D01*
X011250Y010483D02*
X012360Y010483D01*
X012360Y010641D02*
X011250Y010641D01*
X011250Y010800D02*
X012360Y010800D01*
X012360Y010958D02*
X011250Y010958D01*
X011250Y011117D02*
X012360Y011117D01*
X012360Y011275D02*
X011250Y011275D01*
X011250Y011434D02*
X011639Y011434D01*
X011462Y011592D02*
X011398Y011592D01*
X010930Y011930D02*
X010930Y009930D01*
X009930Y008930D01*
X009930Y007930D01*
X010180Y007680D01*
X009930Y007930D02*
X009180Y007930D01*
X008430Y007180D01*
X007865Y007553D02*
X007902Y007641D01*
X007969Y007708D01*
X008057Y007745D01*
X008542Y007745D01*
X008909Y008111D01*
X008999Y008201D01*
X009116Y008250D01*
X009610Y008250D01*
X009610Y008446D01*
X009607Y008447D01*
X009447Y008607D01*
X009398Y008725D01*
X009366Y008663D01*
X009319Y008598D01*
X009262Y008541D01*
X009197Y008494D01*
X009126Y008457D01*
X009049Y008433D01*
X008970Y008420D01*
X008930Y008420D01*
X008930Y008930D01*
X008930Y008930D01*
X008930Y009440D01*
X008970Y009440D01*
X009049Y009427D01*
X009126Y009403D01*
X009197Y009366D01*
X009262Y009319D01*
X009319Y009262D01*
X009366Y009197D01*
X009398Y009135D01*
X009447Y009253D01*
X009607Y009413D01*
X009817Y009500D01*
X010043Y009500D01*
X010046Y009499D01*
X010610Y010063D01*
X010610Y011446D01*
X010607Y011447D01*
X010447Y011607D01*
X010430Y011648D01*
X010413Y011607D01*
X010253Y011447D01*
X010043Y011360D01*
X009817Y011360D01*
X009607Y011447D01*
X009447Y011607D01*
X009430Y011648D01*
X009413Y011607D01*
X009253Y011447D01*
X009043Y011360D01*
X008817Y011360D01*
X008607Y011447D01*
X008447Y011607D01*
X008446Y011610D01*
X007958Y011610D01*
X007947Y011584D01*
X007776Y011413D01*
X007551Y011320D01*
X007309Y011320D01*
X007084Y011413D01*
X006913Y011584D01*
X006820Y011809D01*
X006820Y012051D01*
X006913Y012276D01*
X007084Y012447D01*
X007309Y012540D01*
X007551Y012540D01*
X007776Y012447D01*
X007947Y012276D01*
X007958Y012250D01*
X008446Y012250D01*
X008447Y012253D01*
X008607Y012413D01*
X008610Y012414D01*
X008610Y012547D01*
X008577Y012581D01*
X008551Y012570D01*
X008309Y012570D01*
X008084Y012663D01*
X007913Y012834D01*
X007820Y013059D01*
X007820Y013301D01*
X007913Y013526D01*
X008067Y013680D01*
X007913Y013834D01*
X007820Y014059D01*
X007820Y014301D01*
X007896Y014485D01*
X006313Y014485D01*
X004868Y013040D01*
X005051Y013040D01*
X005276Y012947D01*
X005447Y012776D01*
X005540Y012551D01*
X005540Y012309D01*
X005447Y012084D01*
X005276Y011913D01*
X005051Y011820D01*
X004809Y011820D01*
X004584Y011913D01*
X004430Y012067D01*
X004330Y011967D01*
X004330Y011075D01*
X004413Y011276D01*
X004584Y011447D01*
X004809Y011540D01*
X005051Y011540D01*
X005276Y011447D01*
X005447Y011276D01*
X005476Y011205D01*
X005486Y011201D01*
X006361Y010326D01*
X006451Y010236D01*
X006500Y010119D01*
X006500Y006938D01*
X007188Y006250D01*
X009797Y006250D01*
X010610Y007063D01*
X010610Y007247D01*
X010526Y007163D01*
X010301Y007070D01*
X010059Y007070D01*
X009834Y007163D01*
X009663Y007334D01*
X009570Y007559D01*
X009570Y007610D01*
X009313Y007610D01*
X008995Y007292D01*
X008995Y006807D01*
X008958Y006719D01*
X008891Y006652D01*
X008803Y006615D01*
X008057Y006615D01*
X007969Y006652D01*
X007902Y006719D01*
X007865Y006807D01*
X007865Y006921D01*
X007862Y006915D01*
X007815Y006851D01*
X007759Y006795D01*
X007695Y006748D01*
X007624Y006712D01*
X007548Y006687D01*
X007470Y006675D01*
X007430Y006675D01*
X007430Y007180D01*
X007430Y007180D01*
X007430Y007685D01*
X007470Y007685D01*
X007548Y007673D01*
X007624Y007648D01*
X007695Y007612D01*
X007759Y007565D01*
X007815Y007509D01*
X007862Y007445D01*
X007865Y007439D01*
X007865Y007553D01*
X007865Y007471D02*
X007843Y007471D01*
X007897Y007630D02*
X007660Y007630D01*
X007430Y007630D02*
X007430Y007630D01*
X007430Y007685D02*
X007390Y007685D01*
X007312Y007673D01*
X007236Y007648D01*
X007165Y007612D01*
X007101Y007565D01*
X007045Y007509D01*
X006998Y007445D01*
X006962Y007374D01*
X006937Y007298D01*
X006925Y007220D01*
X006925Y007180D01*
X007430Y007180D01*
X007430Y007180D01*
X007430Y007180D01*
X007430Y007685D01*
X007430Y007471D02*
X007430Y007471D01*
X007430Y007313D02*
X007430Y007313D01*
X007430Y007180D02*
X006925Y007180D01*
X006925Y007140D01*
X006937Y007062D01*
X006962Y006986D01*
X006998Y006915D01*
X007045Y006851D01*
X007101Y006795D01*
X007165Y006748D01*
X007236Y006712D01*
X007312Y006687D01*
X007390Y006675D01*
X007430Y006675D01*
X007430Y007180D01*
X007430Y007154D02*
X007430Y007154D01*
X007430Y006996D02*
X007430Y006996D01*
X007430Y006837D02*
X007430Y006837D01*
X007430Y006679D02*
X007430Y006679D01*
X007492Y006679D02*
X007942Y006679D01*
X007865Y006837D02*
X007801Y006837D01*
X007368Y006679D02*
X006759Y006679D01*
X006601Y006837D02*
X007059Y006837D01*
X006959Y006996D02*
X006500Y006996D01*
X006500Y007154D02*
X006925Y007154D01*
X006942Y007313D02*
X006500Y007313D01*
X006500Y007471D02*
X007017Y007471D01*
X007200Y007630D02*
X006500Y007630D01*
X006500Y007788D02*
X008585Y007788D01*
X008744Y007947D02*
X006500Y007947D01*
X006500Y008105D02*
X008902Y008105D01*
X008890Y008420D02*
X008811Y008433D01*
X008734Y008457D01*
X008663Y008494D01*
X008598Y008541D01*
X008541Y008598D01*
X008494Y008663D01*
X008457Y008734D01*
X008433Y008811D01*
X008420Y008890D01*
X008420Y008930D01*
X008930Y008930D01*
X008930Y008930D01*
X008930Y008930D01*
X008930Y009440D01*
X008890Y009440D01*
X008811Y009427D01*
X008734Y009403D01*
X008663Y009366D01*
X008598Y009319D01*
X008541Y009262D01*
X008494Y009197D01*
X008457Y009126D01*
X008433Y009049D01*
X008420Y008970D01*
X008420Y008930D01*
X008930Y008930D01*
X008930Y008420D01*
X008890Y008420D01*
X008877Y008422D02*
X007644Y008422D01*
X007641Y008420D02*
X007718Y008460D01*
X007788Y008510D01*
X007850Y008572D01*
X007900Y008642D01*
X007940Y008719D01*
X007966Y008801D01*
X007980Y008887D01*
X007980Y008921D01*
X007439Y008921D01*
X007439Y008939D01*
X007421Y008939D01*
X007421Y009480D01*
X007387Y009480D01*
X007301Y009466D01*
X007219Y009440D01*
X007142Y009400D01*
X007072Y009350D01*
X007010Y009288D01*
X006960Y009218D01*
X006920Y009141D01*
X006894Y009059D01*
X006880Y008973D01*
X006880Y008939D01*
X007421Y008939D01*
X007421Y008921D01*
X006880Y008921D01*
X006880Y008887D01*
X006894Y008801D01*
X006920Y008719D01*
X006960Y008642D01*
X007010Y008572D01*
X007072Y008510D01*
X007142Y008460D01*
X007219Y008420D01*
X007301Y008394D01*
X007387Y008380D01*
X007421Y008380D01*
X007421Y008921D01*
X007439Y008921D01*
X007439Y008380D01*
X007473Y008380D01*
X007559Y008394D01*
X007641Y008420D01*
X007856Y008581D02*
X008558Y008581D01*
X008456Y008739D02*
X007946Y008739D01*
X007980Y008898D02*
X008420Y008898D01*
X008435Y009056D02*
X007967Y009056D01*
X007966Y009059D02*
X007940Y009141D01*
X007900Y009218D01*
X007850Y009288D01*
X007788Y009350D01*
X007718Y009400D01*
X007641Y009440D01*
X007559Y009466D01*
X007473Y009480D01*
X007439Y009480D01*
X007439Y008939D01*
X007980Y008939D01*
X007980Y008973D01*
X007966Y009059D01*
X007902Y009215D02*
X008506Y009215D01*
X008676Y009373D02*
X007756Y009373D01*
X007439Y009373D02*
X007421Y009373D01*
X007421Y009215D02*
X007439Y009215D01*
X007439Y009056D02*
X007421Y009056D01*
X007421Y008898D02*
X007439Y008898D01*
X007439Y008739D02*
X007421Y008739D01*
X007421Y008581D02*
X007439Y008581D01*
X007439Y008422D02*
X007421Y008422D01*
X007216Y008422D02*
X006500Y008422D01*
X006500Y008264D02*
X009610Y008264D01*
X009610Y008422D02*
X008983Y008422D01*
X008930Y008422D02*
X008930Y008422D01*
X008930Y008581D02*
X008930Y008581D01*
X008930Y008739D02*
X008930Y008739D01*
X008930Y008898D02*
X008930Y008898D01*
X008930Y009056D02*
X008930Y009056D01*
X008930Y009215D02*
X008930Y009215D01*
X008930Y009373D02*
X008930Y009373D01*
X009184Y009373D02*
X009567Y009373D01*
X009431Y009215D02*
X009354Y009215D01*
X009302Y008581D02*
X009473Y008581D01*
X010250Y008446D02*
X010250Y008290D01*
X010301Y008290D01*
X010526Y008197D01*
X010610Y008113D01*
X010610Y008446D01*
X010607Y008447D01*
X010447Y008607D01*
X010430Y008648D01*
X010413Y008607D01*
X010253Y008447D01*
X010250Y008446D01*
X010250Y008422D02*
X010610Y008422D01*
X010610Y008264D02*
X010365Y008264D01*
X010387Y008581D02*
X010473Y008581D01*
X011250Y008422D02*
X011667Y008422D01*
X011473Y008581D02*
X011387Y008581D01*
X011250Y008264D02*
X011995Y008264D01*
X012193Y008422D02*
X012360Y008422D01*
X012680Y008180D02*
X012680Y012555D01*
X012055Y013180D01*
X011430Y013180D01*
X010430Y013180D01*
X009930Y012680D01*
X009930Y011930D01*
X009430Y012212D02*
X009413Y012253D01*
X009253Y012413D01*
X009250Y012414D01*
X009250Y012744D01*
X009201Y012861D01*
X009111Y012951D01*
X009029Y013033D01*
X009040Y013059D01*
X009040Y013301D01*
X008947Y013526D01*
X008793Y013680D01*
X008947Y013834D01*
X009040Y014059D01*
X009040Y014301D01*
X008964Y014485D01*
X010672Y014485D01*
X010831Y014327D01*
X010820Y014301D01*
X010820Y014059D01*
X010913Y013834D01*
X011067Y013680D01*
X010913Y013526D01*
X010902Y013500D01*
X010366Y013500D01*
X010249Y013451D01*
X009749Y012951D01*
X009659Y012861D01*
X009610Y012744D01*
X009610Y012414D01*
X009607Y012413D01*
X009447Y012253D01*
X009430Y012212D01*
X009424Y012226D02*
X009436Y012226D01*
X009578Y012385D02*
X009282Y012385D01*
X009250Y012543D02*
X009610Y012543D01*
X009610Y012702D02*
X009250Y012702D01*
X009202Y012860D02*
X009658Y012860D01*
X009816Y013019D02*
X009044Y013019D01*
X009040Y013177D02*
X009974Y013177D01*
X010133Y013336D02*
X009026Y013336D01*
X008960Y013494D02*
X010352Y013494D01*
X010857Y013970D02*
X009003Y013970D01*
X009040Y014128D02*
X010820Y014128D01*
X010820Y014287D02*
X009040Y014287D01*
X008980Y014445D02*
X010712Y014445D01*
X010805Y014805D02*
X006180Y014805D01*
X003930Y012555D01*
X003930Y012430D01*
X003497Y012860D02*
X003363Y012860D01*
X003330Y012893D02*
X003330Y013514D01*
X003386Y013570D01*
X003551Y013570D01*
X003776Y013663D01*
X003947Y013834D01*
X003967Y013882D01*
X004010Y013822D01*
X004072Y013760D01*
X004142Y013710D01*
X004219Y013670D01*
X004301Y013644D01*
X004387Y013630D01*
X004410Y013630D01*
X004410Y014160D01*
X004450Y014160D01*
X004450Y013630D01*
X004473Y013630D01*
X004559Y013644D01*
X004569Y013647D01*
X003962Y013040D01*
X003809Y013040D01*
X003584Y012947D01*
X003430Y012793D01*
X003330Y012893D01*
X003330Y013019D02*
X003757Y013019D01*
X004099Y013177D02*
X003330Y013177D01*
X003330Y013336D02*
X004258Y013336D01*
X004416Y013494D02*
X003330Y013494D01*
X003751Y013653D02*
X004274Y013653D01*
X004410Y013653D02*
X004450Y013653D01*
X004450Y013811D02*
X004410Y013811D01*
X004410Y013970D02*
X004450Y013970D01*
X004450Y014128D02*
X004410Y014128D01*
X004450Y014200D02*
X004980Y014200D01*
X004980Y014223D01*
X004966Y014309D01*
X004940Y014391D01*
X004900Y014468D01*
X004850Y014538D01*
X004788Y014600D01*
X004718Y014650D01*
X004641Y014690D01*
X004559Y014716D01*
X004473Y014730D01*
X004450Y014730D01*
X004450Y014200D01*
X004450Y014287D02*
X004410Y014287D01*
X004410Y014445D02*
X004450Y014445D01*
X004450Y014604D02*
X004410Y014604D01*
X004077Y014604D02*
X003869Y014604D01*
X003619Y014762D02*
X005684Y014762D01*
X005526Y014604D02*
X004783Y014604D01*
X004912Y014445D02*
X005367Y014445D01*
X005209Y014287D02*
X004970Y014287D01*
X004979Y014128D02*
X005050Y014128D01*
X005480Y013653D02*
X008040Y013653D01*
X007936Y013811D02*
X005639Y013811D01*
X005797Y013970D02*
X007857Y013970D01*
X007820Y014128D02*
X005956Y014128D01*
X006114Y014287D02*
X007820Y014287D01*
X007880Y014445D02*
X006273Y014445D01*
X005322Y013494D02*
X007900Y013494D01*
X007834Y013336D02*
X005163Y013336D01*
X005005Y013177D02*
X007820Y013177D01*
X007837Y013019D02*
X005103Y013019D01*
X005363Y012860D02*
X007902Y012860D01*
X008046Y012702D02*
X005478Y012702D01*
X005540Y012543D02*
X008610Y012543D01*
X008578Y012385D02*
X007838Y012385D01*
X007430Y011930D02*
X008930Y011930D01*
X008930Y012680D01*
X008430Y013180D01*
X008430Y014180D01*
X008924Y013811D02*
X010936Y013811D01*
X011040Y013653D02*
X008820Y013653D01*
X010250Y012547D02*
X010250Y012414D01*
X010253Y012413D01*
X010413Y012253D01*
X010430Y012212D01*
X010447Y012253D01*
X010607Y012413D01*
X010817Y012500D01*
X011043Y012500D01*
X011253Y012413D01*
X011413Y012253D01*
X011430Y012212D01*
X011447Y012253D01*
X011607Y012413D01*
X011817Y012500D01*
X012043Y012500D01*
X012253Y012413D01*
X012360Y012306D01*
X012360Y012422D01*
X011947Y012835D01*
X011947Y012834D01*
X011776Y012663D01*
X011551Y012570D01*
X011309Y012570D01*
X011084Y012663D01*
X010913Y012834D01*
X010902Y012860D01*
X010563Y012860D01*
X010250Y012547D01*
X010250Y012543D02*
X012239Y012543D01*
X012282Y012385D02*
X012360Y012385D01*
X012081Y012702D02*
X011814Y012702D01*
X011578Y012385D02*
X011282Y012385D01*
X011424Y012226D02*
X011436Y012226D01*
X011046Y012702D02*
X010404Y012702D01*
X010282Y012385D02*
X010578Y012385D01*
X010436Y012226D02*
X010424Y012226D01*
X010398Y011592D02*
X010462Y011592D01*
X010610Y011434D02*
X010221Y011434D01*
X010610Y011275D02*
X005447Y011275D01*
X005571Y011117D02*
X010610Y011117D01*
X010610Y010958D02*
X005730Y010958D01*
X005888Y010800D02*
X010610Y010800D01*
X010610Y010641D02*
X006047Y010641D01*
X006205Y010483D02*
X010610Y010483D01*
X010610Y010324D02*
X006364Y010324D01*
X006481Y010166D02*
X010610Y010166D01*
X010554Y010007D02*
X006500Y010007D01*
X006500Y009849D02*
X010396Y009849D01*
X010237Y009690D02*
X006500Y009690D01*
X006500Y009532D02*
X010079Y009532D01*
X011293Y009373D02*
X011567Y009373D01*
X011431Y009215D02*
X011429Y009215D01*
X012293Y009373D02*
X012360Y009373D01*
X013000Y009373D02*
X013130Y009373D01*
X013130Y009532D02*
X013000Y009532D01*
X013000Y009690D02*
X013130Y009690D01*
X013130Y009849D02*
X013000Y009849D01*
X013000Y010007D02*
X013130Y010007D01*
X013130Y010166D02*
X013000Y010166D01*
X013000Y010324D02*
X013130Y010324D01*
X013130Y010483D02*
X013000Y010483D01*
X013000Y010641D02*
X013130Y010641D01*
X013130Y010800D02*
X013000Y010800D01*
X013000Y010958D02*
X013130Y010958D01*
X013130Y011117D02*
X013000Y011117D01*
X013000Y011275D02*
X013130Y011275D01*
X013130Y011434D02*
X013000Y011434D01*
X013000Y011592D02*
X013130Y011592D01*
X013130Y011751D02*
X013000Y011751D01*
X013000Y011909D02*
X013130Y011909D01*
X013130Y012068D02*
X013000Y012068D01*
X013000Y012226D02*
X013130Y012226D01*
X013130Y012385D02*
X013000Y012385D01*
X013000Y012543D02*
X013130Y012543D01*
X013130Y012702D02*
X012966Y012702D01*
X012828Y012860D02*
X013130Y012860D01*
X013130Y013019D02*
X012669Y013019D01*
X012511Y013177D02*
X013130Y013177D01*
X013130Y013336D02*
X012352Y013336D01*
X012133Y013494D02*
X013130Y013494D01*
X013130Y013653D02*
X011820Y013653D01*
X011924Y013811D02*
X013130Y013811D01*
X013130Y013970D02*
X012003Y013970D01*
X012040Y014128D02*
X013130Y014128D01*
X013130Y014287D02*
X012040Y014287D01*
X011980Y014445D02*
X013130Y014445D01*
X013130Y014604D02*
X011869Y014604D01*
X011619Y014762D02*
X013130Y014762D01*
X011430Y014180D02*
X010805Y014805D01*
X009462Y011592D02*
X009398Y011592D01*
X009221Y011434D02*
X009639Y011434D01*
X008639Y011434D02*
X007796Y011434D01*
X007950Y011592D02*
X008462Y011592D01*
X007064Y011434D02*
X005289Y011434D01*
X005266Y011909D02*
X006820Y011909D01*
X006827Y012068D02*
X005430Y012068D01*
X005506Y012226D02*
X006892Y012226D01*
X007022Y012385D02*
X005540Y012385D01*
X004594Y011909D02*
X004330Y011909D01*
X004330Y011751D02*
X006844Y011751D01*
X006910Y011592D02*
X004330Y011592D01*
X004330Y011434D02*
X004571Y011434D01*
X004413Y011275D02*
X004330Y011275D01*
X004330Y011117D02*
X004347Y011117D01*
X004330Y010785D02*
X004330Y009846D01*
X004403Y009773D01*
X004394Y009801D01*
X004380Y009887D01*
X004380Y009921D01*
X004921Y009921D01*
X004921Y009939D01*
X004380Y009939D01*
X004380Y009973D01*
X004394Y010059D01*
X004420Y010141D01*
X004460Y010218D01*
X004510Y010288D01*
X004572Y010350D01*
X004632Y010393D01*
X004584Y010413D01*
X004413Y010584D01*
X004330Y010785D01*
X004330Y010641D02*
X004389Y010641D01*
X004330Y010483D02*
X004515Y010483D01*
X004546Y010324D02*
X004330Y010324D01*
X004330Y010166D02*
X004433Y010166D01*
X004385Y010007D02*
X004330Y010007D01*
X004330Y009849D02*
X004386Y009849D01*
X004939Y009921D02*
X004939Y009939D01*
X005480Y009939D01*
X005480Y009973D01*
X005466Y010059D01*
X005440Y010141D01*
X005400Y010218D01*
X005350Y010288D01*
X005288Y010350D01*
X005228Y010393D01*
X005276Y010413D01*
X005323Y010460D01*
X005860Y009922D01*
X005860Y009066D01*
X005532Y009394D01*
X005385Y009455D01*
X005225Y009455D01*
X005209Y009455D01*
X005218Y009460D01*
X005288Y009510D01*
X005350Y009572D01*
X005400Y009642D01*
X005440Y009719D01*
X005466Y009801D01*
X005480Y009887D01*
X005480Y009921D01*
X004939Y009921D01*
X005309Y009532D02*
X005860Y009532D01*
X005860Y009690D02*
X005425Y009690D01*
X005474Y009849D02*
X005860Y009849D01*
X005775Y010007D02*
X005475Y010007D01*
X005427Y010166D02*
X005617Y010166D01*
X005458Y010324D02*
X005314Y010324D01*
X005305Y010930D02*
X004930Y010930D01*
X005305Y010930D02*
X006180Y010055D01*
X006180Y006805D01*
X007055Y005930D01*
X009930Y005930D01*
X010198Y005728D02*
X010570Y005728D01*
X010570Y005569D02*
X010357Y005569D01*
X010515Y005411D02*
X010631Y005411D01*
X010674Y005252D02*
X010745Y005252D01*
X010816Y005094D02*
X011002Y005094D01*
X010936Y004935D02*
X013130Y004935D01*
X013130Y004777D02*
X010995Y004777D01*
X010995Y004618D02*
X013130Y004618D01*
X013130Y004460D02*
X010950Y004460D01*
X010850Y004301D02*
X011556Y004301D01*
X011804Y004301D02*
X013130Y004301D01*
X013130Y004143D02*
X012058Y004143D01*
X012153Y003984D02*
X013130Y003984D01*
X013130Y003826D02*
X012186Y003826D01*
X012184Y003667D02*
X013130Y003667D01*
X013130Y003509D02*
X012184Y003509D01*
X012460Y003350D02*
X013130Y003350D01*
X013130Y003192D02*
X012546Y003192D01*
X012546Y003033D02*
X013130Y003033D01*
X013130Y002875D02*
X012546Y002875D01*
X012546Y002716D02*
X013130Y002716D01*
X013130Y002558D02*
X012546Y002558D01*
X012546Y002399D02*
X013130Y002399D01*
X013130Y002241D02*
X012546Y002241D01*
X012546Y002082D02*
X013130Y002082D01*
X013130Y001924D02*
X012546Y001924D01*
X012546Y001765D02*
X013130Y001765D01*
X013130Y001607D02*
X012546Y001607D01*
X012546Y001448D02*
X013130Y001448D01*
X013130Y001290D02*
X012546Y001290D01*
X012539Y001131D02*
X013130Y001131D01*
X013130Y000973D02*
X012394Y000973D01*
X013130Y000814D02*
X000480Y000814D01*
X000480Y000656D02*
X013130Y000656D01*
X013101Y000497D02*
X000509Y000497D01*
X000480Y000973D02*
X001025Y000973D01*
X000894Y001131D02*
X000480Y001131D01*
X000480Y001290D02*
X000828Y001290D01*
X000820Y001448D02*
X000480Y001448D01*
X000480Y001607D02*
X000843Y001607D01*
X000909Y001765D02*
X000480Y001765D01*
X000480Y001924D02*
X001061Y001924D01*
X001516Y002082D02*
X000480Y002082D01*
X000480Y002241D02*
X001675Y002241D01*
X001833Y002399D02*
X000480Y002399D01*
X000480Y002558D02*
X001992Y002558D01*
X002030Y002716D02*
X000480Y002716D01*
X000480Y002875D02*
X001951Y002875D01*
X001890Y003033D02*
X000480Y003033D01*
X000480Y003192D02*
X001890Y003192D01*
X001890Y003350D02*
X000480Y003350D01*
X000480Y003509D02*
X001890Y003509D01*
X001890Y003667D02*
X000480Y003667D01*
X000480Y003826D02*
X001890Y003826D01*
X001951Y003984D02*
X000480Y003984D01*
X000480Y004143D02*
X002079Y004143D01*
X002661Y004618D02*
X000480Y004618D01*
X000480Y004460D02*
X002727Y004460D01*
X002817Y004301D02*
X000480Y004301D01*
X000480Y004777D02*
X002658Y004777D01*
X002658Y004935D02*
X000480Y004935D01*
X000480Y005094D02*
X002724Y005094D01*
X002810Y005252D02*
X000480Y005252D01*
X000480Y005411D02*
X002968Y005411D01*
X003892Y005411D02*
X005030Y005411D01*
X005030Y005569D02*
X000480Y005569D01*
X000480Y005728D02*
X005030Y005728D01*
X005030Y005886D02*
X000480Y005886D01*
X000480Y006045D02*
X005044Y006045D01*
X005137Y006203D02*
X000480Y006203D01*
X000480Y006362D02*
X005280Y006362D01*
X005280Y006520D02*
X000480Y006520D01*
X000480Y006679D02*
X005280Y006679D01*
X005280Y006837D02*
X000480Y006837D01*
X000480Y006996D02*
X005280Y006996D01*
X005280Y007154D02*
X004493Y007154D01*
X004468Y007150D02*
X004542Y007162D01*
X004614Y007185D01*
X004682Y007219D01*
X004743Y007264D01*
X004796Y007317D01*
X004841Y007378D01*
X004875Y007446D01*
X004898Y007518D01*
X004910Y007592D01*
X004910Y007910D01*
X004450Y007910D01*
X004450Y007150D01*
X004468Y007150D01*
X004450Y007154D02*
X004410Y007154D01*
X004367Y007154D02*
X003692Y007154D01*
X003876Y007313D02*
X004069Y007313D01*
X003977Y007471D02*
X003949Y007471D01*
X004410Y007471D02*
X004450Y007471D01*
X004450Y007313D02*
X004410Y007313D01*
X004410Y007630D02*
X004450Y007630D01*
X004450Y007788D02*
X004410Y007788D01*
X004450Y007947D02*
X005280Y007947D01*
X005280Y008105D02*
X004910Y008105D01*
X004910Y008264D02*
X005280Y008264D01*
X005280Y008422D02*
X004871Y008422D01*
X004758Y008581D02*
X005214Y008581D01*
X005711Y009215D02*
X005860Y009215D01*
X005860Y009373D02*
X005553Y009373D01*
X006500Y009373D02*
X007104Y009373D01*
X006958Y009215D02*
X006500Y009215D01*
X006500Y009056D02*
X006893Y009056D01*
X006880Y008898D02*
X006500Y008898D01*
X006500Y008739D02*
X006914Y008739D01*
X007004Y008581D02*
X006500Y008581D01*
X005280Y007788D02*
X004910Y007788D01*
X004910Y007630D02*
X005280Y007630D01*
X005280Y007471D02*
X004883Y007471D01*
X004791Y007313D02*
X005280Y007313D01*
X006080Y006452D02*
X006080Y006346D01*
X006596Y005830D01*
X006702Y005830D01*
X006080Y006452D01*
X006080Y006362D02*
X006171Y006362D01*
X006223Y006203D02*
X006329Y006203D01*
X006381Y006045D02*
X006488Y006045D01*
X006540Y005886D02*
X006646Y005886D01*
X007076Y006362D02*
X009909Y006362D01*
X010067Y006520D02*
X006918Y006520D01*
X005884Y005411D02*
X005830Y005411D01*
X005830Y005464D02*
X006091Y005203D01*
X006203Y005091D01*
X006350Y005030D01*
X006481Y005030D01*
X006451Y005000D01*
X006365Y004792D01*
X006365Y004681D01*
X006349Y004665D01*
X006237Y004552D01*
X006176Y004405D01*
X006176Y003404D01*
X006006Y003404D01*
X005918Y003368D01*
X005851Y003300D01*
X005830Y003251D01*
X005830Y005464D01*
X005830Y005252D02*
X006042Y005252D01*
X006201Y005094D02*
X005830Y005094D01*
X005830Y004935D02*
X006424Y004935D01*
X006365Y004777D02*
X005830Y004777D01*
X005830Y004618D02*
X006302Y004618D01*
X006198Y004460D02*
X005830Y004460D01*
X005830Y004301D02*
X006176Y004301D01*
X006176Y004143D02*
X005830Y004143D01*
X005830Y003984D02*
X006176Y003984D01*
X006176Y003826D02*
X005830Y003826D01*
X005830Y003667D02*
X006176Y003667D01*
X006176Y003509D02*
X005830Y003509D01*
X005830Y003350D02*
X005900Y003350D01*
X005030Y003350D02*
X004970Y003350D01*
X004970Y003192D02*
X005030Y003192D01*
X005030Y003033D02*
X004970Y003033D01*
X004909Y002875D02*
X005030Y002875D01*
X005030Y002716D02*
X004780Y002716D01*
X005030Y002558D02*
X003868Y002558D01*
X003830Y002716D02*
X004080Y002716D01*
X003951Y002875D02*
X003909Y002875D01*
X004027Y002399D02*
X004958Y002399D01*
X004800Y002241D02*
X004185Y002241D01*
X004344Y002082D02*
X004641Y002082D01*
X005139Y001448D02*
X005814Y001448D01*
X005814Y001290D02*
X005032Y001290D01*
X004966Y001131D02*
X005821Y001131D01*
X005966Y000973D02*
X004835Y000973D01*
X005297Y001607D02*
X005814Y001607D01*
X005814Y001765D02*
X005456Y001765D01*
X005614Y001924D02*
X005814Y001924D01*
X005814Y002082D02*
X005771Y002082D01*
X005030Y003509D02*
X004970Y003509D01*
X004970Y003667D02*
X005030Y003667D01*
X005030Y003826D02*
X004970Y003826D01*
X004909Y003984D02*
X005030Y003984D01*
X005030Y004143D02*
X004781Y004143D01*
X005030Y004301D02*
X004043Y004301D01*
X004133Y004460D02*
X005030Y004460D01*
X005030Y004618D02*
X004199Y004618D01*
X004202Y004777D02*
X005030Y004777D01*
X005030Y004935D02*
X004202Y004935D01*
X004136Y005094D02*
X005030Y005094D01*
X005030Y005252D02*
X004050Y005252D01*
X004079Y004143D02*
X003885Y004143D01*
X003909Y003984D02*
X003951Y003984D01*
X002975Y004143D02*
X002781Y004143D01*
X002909Y003984D02*
X002951Y003984D01*
X002909Y002875D02*
X002951Y002875D01*
X003030Y002716D02*
X002830Y002716D01*
X002830Y002558D02*
X003030Y002558D01*
X003030Y002399D02*
X002830Y002399D01*
X002784Y002241D02*
X003076Y002241D01*
X003212Y002082D02*
X002648Y002082D01*
X002489Y001924D02*
X003371Y001924D01*
X003529Y001765D02*
X002331Y001765D01*
X002172Y001607D02*
X003688Y001607D01*
X003820Y001448D02*
X002040Y001448D01*
X002032Y001290D02*
X003828Y001290D01*
X003894Y001131D02*
X001966Y001131D01*
X001835Y000973D02*
X004025Y000973D01*
X007109Y004143D02*
X007751Y004143D01*
X007510Y004301D02*
X007350Y004301D01*
X007430Y004949D02*
X007409Y005000D01*
X007379Y005030D01*
X007481Y005030D01*
X007451Y005000D01*
X007430Y004949D01*
X008918Y006679D02*
X010226Y006679D01*
X010384Y006837D02*
X008995Y006837D01*
X008995Y006996D02*
X010543Y006996D01*
X010504Y007154D02*
X010610Y007154D01*
X011131Y006679D02*
X011726Y006679D01*
X011860Y006837D02*
X011238Y006837D01*
X011250Y006996D02*
X011860Y006996D01*
X011856Y007154D02*
X011250Y007154D01*
X011250Y007313D02*
X011685Y007313D01*
X011606Y007471D02*
X011250Y007471D01*
X011250Y007630D02*
X011570Y007630D01*
X011570Y007788D02*
X011250Y007788D01*
X011250Y007947D02*
X011630Y007947D01*
X011742Y008105D02*
X011250Y008105D01*
X012180Y007680D02*
X012680Y008180D01*
X012899Y007947D02*
X013130Y007947D01*
X013130Y008105D02*
X012995Y008105D01*
X013000Y008264D02*
X013130Y008264D01*
X013130Y008422D02*
X013000Y008422D01*
X013000Y008581D02*
X013130Y008581D01*
X013130Y008739D02*
X013000Y008739D01*
X013000Y008898D02*
X013130Y008898D01*
X013130Y009056D02*
X013000Y009056D01*
X013000Y009215D02*
X013130Y009215D01*
X013130Y007788D02*
X012790Y007788D01*
X012790Y007630D02*
X013130Y007630D01*
X013130Y007471D02*
X012754Y007471D01*
X012675Y007313D02*
X013130Y007313D01*
X013130Y007154D02*
X012504Y007154D01*
X012500Y006996D02*
X013130Y006996D01*
X013130Y006837D02*
X012500Y006837D01*
X012500Y006679D02*
X013130Y006679D01*
X013130Y006520D02*
X012460Y006520D01*
X012314Y006362D02*
X013130Y006362D01*
X013130Y006203D02*
X012156Y006203D01*
X011997Y006045D02*
X013130Y006045D01*
X013130Y005886D02*
X011839Y005886D01*
X011790Y005728D02*
X013130Y005728D01*
X013130Y005569D02*
X011790Y005569D01*
X011729Y005411D02*
X013130Y005411D01*
X013130Y005252D02*
X011615Y005252D01*
X011358Y005094D02*
X013130Y005094D01*
X012180Y006680D02*
X012180Y007680D01*
X012180Y006680D02*
X011180Y005680D01*
X010682Y006045D02*
X010497Y006045D01*
X010605Y005886D02*
X010339Y005886D01*
X010656Y006203D02*
X010849Y006203D01*
X010814Y006362D02*
X011409Y006362D01*
X011567Y006520D02*
X010973Y006520D01*
X009856Y007154D02*
X008995Y007154D01*
X009015Y007313D02*
X009685Y007313D01*
X009606Y007471D02*
X009174Y007471D01*
X012221Y011434D02*
X012360Y011434D01*
X011109Y003350D02*
X010751Y003350D01*
X010837Y003192D02*
X011023Y003192D01*
X011023Y003033D02*
X010837Y003033D01*
X010837Y002875D02*
X011023Y002875D01*
X011023Y002716D02*
X010837Y002716D01*
X010837Y002558D02*
X011023Y002558D01*
X011023Y002399D02*
X010837Y002399D01*
X010837Y002241D02*
X011023Y002241D01*
X011023Y002082D02*
X010837Y002082D01*
X010837Y001924D02*
X011023Y001924D01*
X011023Y001765D02*
X010837Y001765D01*
X010837Y001607D02*
X011023Y001607D01*
X011023Y001448D02*
X010837Y001448D01*
X010837Y001290D02*
X011023Y001290D01*
X011030Y001131D02*
X010830Y001131D01*
X010686Y000973D02*
X011174Y000973D01*
X004305Y008739D02*
X003612Y008739D01*
X003843Y008581D02*
X004102Y008581D01*
X003989Y008422D02*
X003935Y008422D01*
X004216Y008828D02*
X004216Y008828D01*
X004147Y008898D02*
X002750Y008898D01*
X002750Y009056D02*
X003988Y009056D01*
X003830Y009215D02*
X002750Y009215D01*
X002750Y009373D02*
X003671Y009373D01*
X003559Y009532D02*
X002734Y009532D01*
X002623Y009690D02*
X003530Y009690D01*
X003530Y009849D02*
X002540Y009849D01*
X002540Y010007D02*
X003530Y010007D01*
X003530Y010166D02*
X002493Y010166D01*
X002399Y010324D02*
X003530Y010324D01*
X003530Y010483D02*
X002345Y010483D01*
X002471Y010641D02*
X003530Y010641D01*
X003530Y010800D02*
X002536Y010800D01*
X002540Y010958D02*
X003530Y010958D01*
X003530Y011117D02*
X002513Y011117D01*
X002447Y011275D02*
X003530Y011275D01*
X003530Y011434D02*
X002289Y011434D01*
X002594Y011909D02*
X000480Y011909D01*
X000480Y011751D02*
X003530Y011751D01*
X003530Y011909D02*
X003266Y011909D01*
X003530Y011592D02*
X000480Y011592D01*
X000480Y011434D02*
X001571Y011434D01*
X001413Y011275D02*
X000480Y011275D01*
X000480Y011117D02*
X001347Y011117D01*
X001320Y010958D02*
X000480Y010958D01*
X000480Y010800D02*
X001324Y010800D01*
X001389Y010641D02*
X000480Y010641D01*
X000480Y010483D02*
X001515Y010483D01*
X001461Y010324D02*
X000480Y010324D01*
X000480Y010166D02*
X001367Y010166D01*
X001320Y010007D02*
X000480Y010007D01*
X000480Y009849D02*
X001320Y009849D01*
X001369Y009690D02*
X000480Y009690D01*
X000480Y009532D02*
X001466Y009532D01*
X001681Y009373D02*
X000480Y009373D01*
X000480Y009215D02*
X002110Y009215D01*
X002110Y009056D02*
X000480Y009056D01*
X000480Y008898D02*
X002110Y008898D01*
X002110Y008739D02*
X000480Y008739D01*
X000480Y008581D02*
X002017Y008581D01*
X001925Y008422D02*
X000480Y008422D01*
X000480Y008264D02*
X001890Y008264D01*
X001890Y008105D02*
X000480Y008105D01*
X000480Y007947D02*
X001890Y007947D01*
X001890Y007788D02*
X000480Y007788D01*
X000480Y007630D02*
X001890Y007630D01*
X001911Y007471D02*
X000480Y007471D01*
X000480Y007313D02*
X001984Y007313D01*
X002168Y007154D02*
X000480Y007154D01*
X002430Y007930D02*
X002430Y009430D01*
X001930Y009930D01*
X001930Y010930D01*
X002430Y012068D02*
X000480Y012068D01*
X000480Y012226D02*
X002354Y012226D01*
X002320Y012385D02*
X000480Y012385D01*
X000480Y012543D02*
X002320Y012543D01*
X002382Y012702D02*
X000480Y012702D01*
X000480Y012860D02*
X002497Y012860D01*
X002530Y013019D02*
X000480Y013019D01*
X000480Y013177D02*
X002530Y013177D01*
X002530Y013336D02*
X000480Y013336D01*
X000480Y013494D02*
X002530Y013494D01*
X002530Y013653D02*
X000480Y013653D01*
X000480Y013811D02*
X002551Y013811D01*
X002654Y013970D02*
X000480Y013970D01*
X000480Y014128D02*
X002812Y014128D01*
X002820Y014287D02*
X000480Y014287D01*
X000480Y014445D02*
X002880Y014445D01*
X002991Y014604D02*
X000480Y014604D01*
X000480Y014762D02*
X003241Y014762D01*
X003924Y013811D02*
X004021Y013811D01*
X002611Y009701D02*
X002611Y009701D01*
X002750Y008739D02*
X003248Y008739D01*
X003017Y008581D02*
X002843Y008581D01*
X002876Y007313D02*
X002984Y007313D01*
X003168Y007154D02*
X002692Y007154D01*
M02*
