G75*
%MOIN*%
%OFA0B0*%
%FSLAX24Y24*%
%IPPOS*%
%LPD*%
%AMOC8*
5,1,8,0,0,1.08239X$1,22.5*
%
%ADD10C,0.0120*%
%ADD11C,0.1105*%
%ADD12C,0.0700*%
%ADD13C,0.0640*%
%ADD14C,0.0780*%
%ADD15C,0.0400*%
%ADD16C,0.0412*%
%ADD17C,0.0316*%
%ADD18R,0.0690X0.0690*%
%ADD19C,0.0690*%
D10*
X000180Y000555D02*
X000180Y014805D01*
X000182Y014842D01*
X000187Y014878D01*
X000196Y014914D01*
X000209Y014949D01*
X000224Y014982D01*
X000243Y015013D01*
X000265Y015043D01*
X000290Y015070D01*
X000317Y015095D01*
X000347Y015117D01*
X000378Y015136D01*
X000411Y015151D01*
X000446Y015164D01*
X000482Y015173D01*
X000518Y015178D01*
X000555Y015180D01*
X013055Y015180D01*
X013092Y015178D01*
X013128Y015173D01*
X013164Y015164D01*
X013199Y015151D01*
X013232Y015136D01*
X013263Y015117D01*
X013293Y015095D01*
X013320Y015070D01*
X013345Y015043D01*
X013367Y015013D01*
X013386Y014982D01*
X013401Y014949D01*
X013414Y014914D01*
X013423Y014878D01*
X013428Y014842D01*
X013430Y014805D01*
X013430Y000555D01*
X013428Y000518D01*
X013423Y000482D01*
X013414Y000446D01*
X013401Y000411D01*
X013386Y000378D01*
X013367Y000347D01*
X013345Y000317D01*
X013320Y000290D01*
X013293Y000265D01*
X013263Y000243D01*
X013232Y000224D01*
X013199Y000209D01*
X013164Y000196D01*
X013128Y000187D01*
X013092Y000182D01*
X013055Y000180D01*
X000555Y000180D01*
X000518Y000182D01*
X000482Y000187D01*
X000446Y000196D01*
X000411Y000209D01*
X000378Y000224D01*
X000347Y000243D01*
X000317Y000265D01*
X000290Y000290D01*
X000265Y000317D01*
X000243Y000347D01*
X000224Y000378D01*
X000209Y000411D01*
X000196Y000446D01*
X000187Y000482D01*
X000182Y000518D01*
X000180Y000555D01*
D11*
X003430Y004780D03*
D12*
X008930Y008930D03*
X009930Y008930D03*
X010930Y008930D03*
X011930Y008930D03*
X011930Y011930D03*
X010930Y011930D03*
X009930Y011930D03*
X008930Y011930D03*
D13*
X004430Y008230D02*
X004430Y007630D01*
X003430Y007630D02*
X003430Y008230D01*
X002430Y008230D02*
X002430Y007630D01*
X002430Y003730D02*
X002430Y003130D01*
X003430Y003130D02*
X003430Y003730D01*
X004430Y003730D02*
X004430Y003130D01*
D14*
X010180Y007680D03*
X011180Y005680D03*
X012180Y007680D03*
X004930Y012430D03*
X003930Y012430D03*
X002930Y012430D03*
X003430Y014180D03*
X004430Y014180D03*
D15*
X001930Y010930D03*
X004930Y009930D03*
X007430Y011930D03*
X008430Y013180D03*
X011430Y014180D03*
X001430Y001430D03*
D16*
X004430Y001430D03*
X007430Y008930D03*
X004930Y010930D03*
X001930Y009930D03*
X008430Y014180D03*
X011430Y013180D03*
D17*
X010430Y004680D03*
X009430Y004680D03*
X007930Y004680D03*
X006930Y004680D03*
D18*
X008430Y007180D03*
D19*
X007430Y007180D03*
M02*
