G75*
%MOIN*%
%OFA0B0*%
%FSLAX24Y24*%
%IPPOS*%
%LPD*%
%AMOC8*
5,1,8,0,0,1.08239X$1,22.5*
%
%ADD10C,0.0120*%
%ADD11C,0.1065*%
%ADD12C,0.0660*%
%ADD13C,0.0600*%
%ADD14C,0.0740*%
%ADD15C,0.0650*%
%ADD16R,0.0650X0.0650*%
%ADD17R,0.1043X0.1969*%
%ADD18C,0.0320*%
%ADD19C,0.0160*%
%ADD20C,0.0240*%
D10*
X000160Y000535D02*
X000160Y014785D01*
X000162Y014822D01*
X000167Y014858D01*
X000176Y014894D01*
X000189Y014929D01*
X000204Y014962D01*
X000223Y014993D01*
X000245Y015023D01*
X000270Y015050D01*
X000297Y015075D01*
X000327Y015097D01*
X000358Y015116D01*
X000391Y015131D01*
X000426Y015144D01*
X000462Y015153D01*
X000498Y015158D01*
X000535Y015160D01*
X013035Y015160D01*
X013072Y015158D01*
X013108Y015153D01*
X013144Y015144D01*
X013179Y015131D01*
X013212Y015116D01*
X013243Y015097D01*
X013273Y015075D01*
X013300Y015050D01*
X013325Y015023D01*
X013347Y014993D01*
X013366Y014962D01*
X013381Y014929D01*
X013394Y014894D01*
X013403Y014858D01*
X013408Y014822D01*
X013410Y014785D01*
X013410Y000535D01*
X013408Y000498D01*
X013403Y000462D01*
X013394Y000426D01*
X013381Y000391D01*
X013366Y000358D01*
X013347Y000327D01*
X013325Y000297D01*
X013300Y000270D01*
X013273Y000245D01*
X013243Y000223D01*
X013212Y000204D01*
X013179Y000189D01*
X013144Y000176D01*
X013108Y000167D01*
X013072Y000162D01*
X013035Y000160D01*
X000535Y000160D01*
X000498Y000162D01*
X000462Y000167D01*
X000426Y000176D01*
X000391Y000189D01*
X000358Y000204D01*
X000327Y000223D01*
X000297Y000245D01*
X000270Y000270D01*
X000245Y000297D01*
X000223Y000327D01*
X000204Y000358D01*
X000189Y000391D01*
X000176Y000426D01*
X000167Y000462D01*
X000162Y000498D01*
X000160Y000535D01*
D11*
X003410Y004760D03*
D12*
X008910Y008910D03*
X009910Y008910D03*
X010910Y008910D03*
X011910Y008910D03*
X011910Y011910D03*
X010910Y011910D03*
X009910Y011910D03*
X008910Y011910D03*
X009785Y003660D03*
D13*
X004410Y003710D02*
X004410Y003110D01*
X003410Y003110D02*
X003410Y003710D01*
X002410Y003710D02*
X002410Y003110D01*
X002410Y007610D02*
X002410Y008210D01*
X003410Y008210D02*
X003410Y007610D01*
X004410Y007610D02*
X004410Y008210D01*
D14*
X004910Y009910D03*
X004910Y010910D03*
X004910Y012410D03*
X003910Y012410D03*
X002910Y012410D03*
X001910Y010910D03*
X001910Y009910D03*
X003410Y014160D03*
X004410Y014160D03*
X007410Y011910D03*
X008410Y013160D03*
X008410Y014160D03*
X011410Y014160D03*
X011410Y013160D03*
X007410Y008910D03*
X010160Y007660D03*
X011160Y005660D03*
X012160Y007660D03*
X004410Y001410D03*
X001410Y001410D03*
D15*
X006910Y004660D03*
X007910Y004660D03*
X009410Y004660D03*
X010410Y004660D03*
X007410Y007160D03*
D16*
X008410Y007160D03*
D17*
X008264Y002160D03*
X006556Y002160D03*
X010035Y002160D03*
D18*
X010035Y003410D01*
X009785Y003660D01*
X009410Y004660D02*
X008264Y003514D01*
X008264Y002160D01*
X006556Y002160D02*
X006556Y004306D01*
X006910Y004660D01*
X006410Y005410D02*
X007910Y005410D01*
X009910Y005410D01*
X010410Y004910D01*
X010410Y004660D01*
X007910Y004660D02*
X007910Y005410D01*
X006410Y005410D02*
X005660Y006160D01*
X005410Y005910D01*
X005410Y002285D01*
X004535Y001410D01*
X004410Y001410D01*
X003410Y002410D01*
X003410Y003410D01*
X003410Y003535D01*
X002410Y003410D02*
X002410Y002410D01*
X001410Y001410D01*
X005660Y006160D02*
X005660Y008660D01*
X005285Y009035D01*
X004535Y009035D01*
X003910Y009660D01*
X003910Y012410D01*
X002910Y012410D02*
X002910Y013660D01*
X003410Y014160D01*
X007410Y008910D02*
X007410Y007160D01*
D19*
X008410Y007160D02*
X009160Y007910D01*
X009910Y007910D01*
X010160Y007660D01*
X009910Y007910D02*
X009910Y008910D01*
X010910Y009910D01*
X010910Y011910D01*
X009910Y011910D02*
X009910Y012660D01*
X010410Y013160D01*
X011410Y013160D01*
X012035Y013160D01*
X012660Y012535D01*
X012660Y008160D01*
X012160Y007660D01*
X012160Y006660D01*
X011160Y005660D01*
X010910Y006910D02*
X010910Y008910D01*
X010910Y006910D02*
X009910Y005910D01*
X007035Y005910D01*
X006160Y006785D01*
X006160Y010035D01*
X005285Y010910D01*
X004910Y010910D01*
X003910Y012410D02*
X003910Y012660D01*
X004410Y013160D01*
X006160Y013160D01*
X007785Y014785D01*
X010785Y014785D01*
X011410Y014160D01*
X008910Y012660D02*
X008910Y011910D01*
X007410Y011910D01*
X008410Y013160D02*
X008910Y012660D01*
X008410Y013160D02*
X008410Y014160D01*
X002410Y009410D02*
X002410Y007910D01*
X002410Y009410D02*
X001910Y009910D01*
X001910Y010910D01*
D20*
X007410Y008910D02*
X008910Y008910D01*
M02*
