%
M48
M72
T01C0.0276
T02C0.0320
T03C0.0354
T04C0.0394
T05C0.0400
T06C0.0710
%
T01
X6910Y4660
X7910Y4660
X9410Y4660
X10410Y4660
X8410Y7160
X7410Y7160
T02
X8910Y8910
X9910Y8910
X10910Y8910
X11910Y8910
X11910Y11910
X10910Y11910
X9910Y11910
X8910Y11910
T03
X1410Y1410
X4410Y1410
X9785Y3660
X7410Y8910
X4910Y9910
X4910Y10910
X7410Y11910
X8410Y13160
X8410Y14160
X11410Y14160
X11410Y13160
X1910Y10910
X1910Y9910
T04
X10160Y7660
X11160Y5660
X12160Y7660
T05
X2410Y3410
X3410Y3410
X4410Y3410
X4410Y7910
X3410Y7910
X2410Y7910
X2910Y12410
X3910Y12410
X4910Y12410
X4410Y14160
X3410Y14160
T06
X3410Y4760
M30
