G75*
%MOIN*%
%OFA0B0*%
%FSLAX24Y24*%
%IPPOS*%
%LPD*%
%AMOC8*
5,1,8,0,0,1.08239X$1,22.5*
%
%ADD10C,0.0120*%
D10*
X000160Y000535D02*
X000160Y014785D01*
X000162Y014822D01*
X000167Y014858D01*
X000176Y014894D01*
X000189Y014929D01*
X000204Y014962D01*
X000223Y014993D01*
X000245Y015023D01*
X000270Y015050D01*
X000297Y015075D01*
X000327Y015097D01*
X000358Y015116D01*
X000391Y015131D01*
X000426Y015144D01*
X000462Y015153D01*
X000498Y015158D01*
X000535Y015160D01*
X013035Y015160D01*
X013072Y015158D01*
X013108Y015153D01*
X013144Y015144D01*
X013179Y015131D01*
X013212Y015116D01*
X013243Y015097D01*
X013273Y015075D01*
X013300Y015050D01*
X013325Y015023D01*
X013347Y014993D01*
X013366Y014962D01*
X013381Y014929D01*
X013394Y014894D01*
X013403Y014858D01*
X013408Y014822D01*
X013410Y014785D01*
X013410Y000535D01*
X013408Y000498D01*
X013403Y000462D01*
X013394Y000426D01*
X013381Y000391D01*
X013366Y000358D01*
X013347Y000327D01*
X013325Y000297D01*
X013300Y000270D01*
X013273Y000245D01*
X013243Y000223D01*
X013212Y000204D01*
X013179Y000189D01*
X013144Y000176D01*
X013108Y000167D01*
X013072Y000162D01*
X013035Y000160D01*
X000535Y000160D01*
X000498Y000162D01*
X000462Y000167D01*
X000426Y000176D01*
X000391Y000189D01*
X000358Y000204D01*
X000327Y000223D01*
X000297Y000245D01*
X000270Y000270D01*
X000245Y000297D01*
X000223Y000327D01*
X000204Y000358D01*
X000189Y000391D01*
X000176Y000426D01*
X000167Y000462D01*
X000162Y000498D01*
X000160Y000535D01*
M02*
