G75*
%MOIN*%
%OFA0B0*%
%FSLAX24Y24*%
%IPPOS*%
%LPD*%
%AMOC8*
5,1,8,0,0,1.08239X$1,22.5*
%
%ADD10C,0.0030*%
%ADD11C,0.0060*%
%ADD12C,0.0120*%
%ADD13R,0.0900X0.0200*%
%ADD14R,0.4200X0.0300*%
%ADD15R,0.0750X0.0200*%
%ADD16R,0.0300X0.0200*%
%ADD17C,0.0040*%
%ADD18C,0.0080*%
%ADD19R,0.0200X0.0150*%
D10*
X002412Y004375D02*
X002412Y004745D01*
X002597Y004745D01*
X002659Y004684D01*
X002659Y004560D01*
X002597Y004498D01*
X002412Y004498D01*
X002535Y004498D02*
X002659Y004375D01*
X002780Y004437D02*
X002842Y004375D01*
X002965Y004375D01*
X003027Y004437D01*
X003027Y004498D01*
X002965Y004560D01*
X002903Y004560D01*
X002965Y004560D02*
X003027Y004622D01*
X003027Y004684D01*
X002965Y004745D01*
X002842Y004745D01*
X002780Y004684D01*
X004248Y004674D02*
X004248Y004550D01*
X004310Y004488D01*
X004557Y004488D01*
X004618Y004550D01*
X004618Y004674D01*
X004557Y004735D01*
X004618Y004857D02*
X004618Y005104D01*
X004618Y004980D02*
X004248Y004980D01*
X004371Y004857D01*
X004310Y004735D02*
X004248Y004674D01*
X006098Y004392D02*
X006098Y004268D01*
X006160Y004207D01*
X006160Y004085D02*
X006098Y004024D01*
X006098Y003900D01*
X006160Y003838D01*
X006407Y003838D01*
X006468Y003900D01*
X006468Y004024D01*
X006407Y004085D01*
X006468Y004207D02*
X006221Y004454D01*
X006160Y004454D01*
X006098Y004392D01*
X006468Y004454D02*
X006468Y004207D01*
X007398Y004268D02*
X007398Y004392D01*
X007460Y004454D01*
X007521Y004454D01*
X007583Y004392D01*
X007645Y004454D01*
X007707Y004454D01*
X007768Y004392D01*
X007768Y004268D01*
X007707Y004207D01*
X007707Y004085D02*
X007768Y004024D01*
X007768Y003900D01*
X007707Y003838D01*
X007460Y003838D01*
X007398Y003900D01*
X007398Y004024D01*
X007460Y004085D01*
X007460Y004207D02*
X007398Y004268D01*
X007583Y004330D02*
X007583Y004392D01*
X003218Y009775D02*
X003218Y010022D01*
X003218Y010143D02*
X003157Y010143D01*
X002910Y010390D01*
X002848Y010390D01*
X002848Y010143D01*
X002910Y010022D02*
X002848Y009960D01*
X002848Y009837D01*
X002910Y009775D01*
X002910Y010022D02*
X002971Y010022D01*
X003218Y009775D01*
X003218Y010512D02*
X002848Y010759D01*
X003033Y010880D02*
X002848Y011065D01*
X003218Y011065D01*
X003157Y011248D02*
X003218Y011310D01*
X003218Y011433D01*
X003157Y011495D01*
X003033Y011495D01*
X002971Y011433D01*
X002971Y011372D01*
X003033Y011248D01*
X002848Y011248D01*
X002848Y011495D01*
X003033Y011127D02*
X003033Y010880D01*
X003095Y011985D02*
X002848Y011985D01*
X002848Y012232D02*
X003095Y012232D01*
X003218Y012108D01*
X003095Y011985D01*
D11*
X003583Y011910D02*
X003583Y010010D01*
X004083Y010010D02*
X004083Y011910D01*
X003583Y011910D01*
X003583Y010010D02*
X003585Y009963D01*
X003590Y009916D01*
X003600Y009870D01*
X003612Y009825D01*
X003629Y009780D01*
X003648Y009738D01*
X003671Y009697D01*
X003698Y009657D01*
X003727Y009620D01*
X003759Y009586D01*
X003793Y009554D01*
X003830Y009525D01*
X003870Y009498D01*
X003911Y009475D01*
X003953Y009456D01*
X003998Y009439D01*
X004043Y009427D01*
X004089Y009417D01*
X004136Y009412D01*
X004183Y009410D01*
X005733Y009410D01*
X005883Y009910D02*
X004183Y009910D01*
X004166Y009912D01*
X004149Y009916D01*
X004133Y009923D01*
X004119Y009933D01*
X004106Y009946D01*
X004096Y009960D01*
X004089Y009976D01*
X004085Y009993D01*
X004083Y010010D01*
X004283Y008610D02*
X004333Y007460D01*
X004433Y007360D01*
X008133Y007360D01*
X008233Y007460D01*
X008283Y008610D01*
X008383Y009410D02*
X006833Y009410D01*
X006683Y009910D02*
X008383Y009910D01*
X008383Y009410D02*
X008430Y009412D01*
X008477Y009417D01*
X008523Y009427D01*
X008568Y009439D01*
X008613Y009456D01*
X008655Y009475D01*
X008696Y009498D01*
X008736Y009525D01*
X008773Y009554D01*
X008807Y009586D01*
X008839Y009620D01*
X008868Y009657D01*
X008895Y009697D01*
X008918Y009738D01*
X008937Y009780D01*
X008954Y009825D01*
X008966Y009870D01*
X008976Y009916D01*
X008981Y009963D01*
X008983Y010010D01*
X008983Y011910D01*
X008483Y011910D01*
X008483Y010010D01*
X008481Y009993D01*
X008477Y009976D01*
X008470Y009960D01*
X008460Y009946D01*
X008447Y009933D01*
X008433Y009923D01*
X008417Y009916D01*
X008400Y009912D01*
X008383Y009910D01*
X004413Y007600D02*
X004415Y007620D01*
X004421Y007638D01*
X004430Y007656D01*
X004442Y007671D01*
X004457Y007683D01*
X004475Y007692D01*
X004493Y007698D01*
X004513Y007700D01*
X004533Y007698D01*
X004551Y007692D01*
X004569Y007683D01*
X004584Y007671D01*
X004596Y007656D01*
X004605Y007638D01*
X004611Y007620D01*
X004613Y007600D01*
X004611Y007580D01*
X004605Y007562D01*
X004596Y007544D01*
X004584Y007529D01*
X004569Y007517D01*
X004551Y007508D01*
X004533Y007502D01*
X004513Y007500D01*
X004493Y007502D01*
X004475Y007508D01*
X004457Y007517D01*
X004442Y007529D01*
X004430Y007544D01*
X004421Y007562D01*
X004415Y007580D01*
X004413Y007600D01*
X003991Y008004D02*
X003991Y008154D01*
X003989Y008171D01*
X003985Y008188D01*
X003978Y008204D01*
X003968Y008218D01*
X003955Y008231D01*
X003941Y008241D01*
X003925Y008248D01*
X003908Y008252D01*
X003891Y008254D01*
X002976Y008254D01*
X002959Y008252D01*
X002942Y008248D01*
X002926Y008241D01*
X002912Y008231D01*
X002899Y008218D01*
X002889Y008204D01*
X002882Y008188D01*
X002878Y008171D01*
X002876Y008154D01*
X002876Y008004D01*
X002926Y007954D01*
X002926Y005866D01*
X002876Y005816D01*
X002876Y005666D01*
X002878Y005649D01*
X002882Y005632D01*
X002889Y005616D01*
X002899Y005602D01*
X002912Y005589D01*
X002926Y005579D01*
X002942Y005572D01*
X002959Y005568D01*
X002976Y005566D01*
X003891Y005566D01*
X003908Y005568D01*
X003925Y005572D01*
X003941Y005579D01*
X003955Y005589D01*
X003968Y005602D01*
X003978Y005616D01*
X003985Y005632D01*
X003989Y005649D01*
X003991Y005666D01*
X003991Y005816D01*
X003941Y005866D01*
X003941Y007954D01*
X003991Y008004D01*
X002591Y008004D02*
X002591Y008154D01*
X002589Y008171D01*
X002585Y008188D01*
X002578Y008204D01*
X002568Y008218D01*
X002555Y008231D01*
X002541Y008241D01*
X002525Y008248D01*
X002508Y008252D01*
X002491Y008254D01*
X001576Y008254D01*
X001559Y008252D01*
X001542Y008248D01*
X001526Y008241D01*
X001512Y008231D01*
X001499Y008218D01*
X001489Y008204D01*
X001482Y008188D01*
X001478Y008171D01*
X001476Y008154D01*
X001476Y008004D01*
X001526Y007954D01*
X001526Y005866D01*
X001476Y005816D01*
X001476Y005666D01*
X001478Y005649D01*
X001482Y005632D01*
X001489Y005616D01*
X001499Y005602D01*
X001512Y005589D01*
X001526Y005579D01*
X001542Y005572D01*
X001559Y005568D01*
X001576Y005566D01*
X002491Y005566D01*
X002508Y005568D01*
X002525Y005572D01*
X002541Y005579D01*
X002555Y005589D01*
X002568Y005602D01*
X002578Y005616D01*
X002585Y005632D01*
X002589Y005649D01*
X002591Y005666D01*
X002591Y005816D01*
X002541Y005866D01*
X002541Y007954D01*
X002591Y008004D01*
X001055Y009847D02*
X001055Y010274D01*
X001268Y010060D02*
X000841Y010060D01*
X001110Y010968D02*
X001110Y011395D01*
D12*
X000533Y012160D02*
X000533Y000160D01*
X009383Y000160D01*
X009383Y012160D01*
X000533Y012160D01*
D13*
X005283Y009310D03*
X007283Y009310D03*
D14*
X006283Y008910D03*
D15*
X004558Y008660D03*
X008008Y008660D03*
D16*
X006783Y008660D03*
X005783Y008660D03*
D17*
X007603Y007210D02*
X007844Y007210D01*
X007972Y007090D02*
X008092Y007210D01*
X008092Y006850D01*
X007972Y006850D02*
X008212Y006850D01*
X007723Y006850D02*
X007723Y007210D01*
X003516Y007228D02*
X003155Y007228D01*
X003335Y007048D01*
X003335Y007289D01*
X003516Y006920D02*
X003516Y006680D01*
X003155Y006680D01*
X002266Y006680D02*
X002266Y006920D01*
X002205Y007048D02*
X002266Y007108D01*
X002266Y007228D01*
X002205Y007289D01*
X002145Y007289D01*
X002085Y007228D01*
X002085Y007168D01*
X002085Y007228D02*
X002025Y007289D01*
X001965Y007289D01*
X001905Y007228D01*
X001905Y007108D01*
X001965Y007048D01*
X001905Y006680D02*
X002266Y006680D01*
D18*
X002633Y004210D02*
X004633Y004210D01*
X004633Y003910D01*
X004733Y003910D01*
X004633Y003910D02*
X004633Y003610D01*
X002633Y003610D01*
X002633Y003910D01*
X002533Y003910D01*
X002633Y003910D02*
X002633Y004210D01*
X004733Y004560D02*
X005733Y004560D01*
X005733Y006560D01*
X004733Y006560D01*
X004733Y004560D01*
X004983Y005560D02*
X005483Y005560D01*
X006283Y005610D02*
X006783Y005610D01*
X007533Y005610D02*
X008033Y005610D01*
X008283Y004610D02*
X007283Y004610D01*
X007283Y006610D01*
X008283Y006610D01*
X008283Y004610D01*
X007033Y004610D02*
X006033Y004610D01*
X006033Y006610D01*
X007033Y006610D01*
X007033Y004610D01*
X002433Y009710D02*
X002683Y009960D01*
X002683Y010460D01*
X002433Y010710D01*
X002683Y010960D01*
X002683Y011460D01*
X002433Y011710D01*
X001933Y011710D01*
X001683Y011460D01*
X001683Y010960D01*
X001933Y010710D01*
X001683Y010460D01*
X001683Y009960D01*
X001933Y009710D01*
X002433Y009710D01*
D19*
X002033Y008329D03*
X003433Y008329D03*
X003433Y005491D03*
X002033Y005491D03*
M02*
