G75*
%MOIN*%
%OFA0B0*%
%FSLAX24Y24*%
%IPPOS*%
%LPD*%
%AMOC8*
5,1,8,0,0,1.08239X$1,22.5*
%
%ADD10C,0.0160*%
%ADD11C,0.0040*%
%ADD12C,0.0060*%
%ADD13R,0.4200X0.0300*%
%ADD14R,0.0750X0.0200*%
%ADD15R,0.0300X0.0200*%
%ADD16C,0.0050*%
%ADD17C,0.0080*%
%ADD18C,0.0030*%
%ADD19C,0.0100*%
%ADD20R,0.0900X0.0200*%
%ADD21C,0.0010*%
D10*
X000180Y000180D02*
X000180Y014180D01*
X010180Y014180D01*
X010180Y000180D01*
X000180Y000180D01*
D11*
X004569Y001200D02*
X004876Y001507D01*
X004876Y001584D01*
X004799Y001660D01*
X004646Y001660D01*
X004569Y001584D01*
X004569Y001200D02*
X004876Y001200D01*
X005029Y001200D02*
X005029Y001277D01*
X005336Y001584D01*
X005336Y001660D01*
X005029Y001660D01*
X005490Y001660D02*
X005490Y001353D01*
X005643Y001200D01*
X005797Y001353D01*
X005797Y001660D01*
X008529Y001584D02*
X008529Y001277D01*
X008836Y001584D01*
X008836Y001277D01*
X008759Y001200D01*
X008606Y001200D01*
X008529Y001277D01*
X008529Y001584D02*
X008606Y001660D01*
X008759Y001660D01*
X008836Y001584D01*
X008990Y001660D02*
X008990Y001353D01*
X009143Y001200D01*
X009297Y001353D01*
X009297Y001660D01*
D12*
X006780Y004980D02*
X006880Y005080D01*
X006930Y006230D01*
X007030Y007180D02*
X005480Y007180D01*
X005330Y007680D02*
X007030Y007680D01*
X007030Y007180D02*
X007077Y007182D01*
X007124Y007187D01*
X007170Y007197D01*
X007215Y007209D01*
X007260Y007226D01*
X007302Y007245D01*
X007343Y007268D01*
X007383Y007295D01*
X007420Y007324D01*
X007454Y007356D01*
X007486Y007390D01*
X007515Y007427D01*
X007542Y007467D01*
X007565Y007508D01*
X007584Y007550D01*
X007601Y007595D01*
X007613Y007640D01*
X007623Y007686D01*
X007628Y007733D01*
X007630Y007780D01*
X007630Y009680D01*
X007130Y009680D01*
X007130Y007780D01*
X007128Y007763D01*
X007124Y007746D01*
X007117Y007730D01*
X007107Y007716D01*
X007094Y007703D01*
X007080Y007693D01*
X007064Y007686D01*
X007047Y007682D01*
X007030Y007680D01*
X006780Y004980D02*
X003080Y004980D01*
X002980Y005080D01*
X002930Y006230D01*
X002830Y007180D02*
X004380Y007180D01*
X004530Y007680D02*
X002830Y007680D01*
X002830Y007180D02*
X002783Y007182D01*
X002736Y007187D01*
X002690Y007197D01*
X002645Y007209D01*
X002600Y007226D01*
X002558Y007245D01*
X002517Y007268D01*
X002477Y007295D01*
X002440Y007324D01*
X002406Y007356D01*
X002374Y007390D01*
X002345Y007427D01*
X002318Y007467D01*
X002295Y007508D01*
X002276Y007550D01*
X002259Y007595D01*
X002247Y007640D01*
X002237Y007686D01*
X002232Y007733D01*
X002230Y007780D01*
X002230Y009680D01*
X002730Y009680D01*
X002730Y007780D01*
X002732Y007763D01*
X002736Y007746D01*
X002743Y007730D01*
X002753Y007716D01*
X002766Y007703D01*
X002780Y007693D01*
X002796Y007686D01*
X002813Y007682D01*
X002830Y007680D01*
X003060Y005220D02*
X003062Y005240D01*
X003068Y005258D01*
X003077Y005276D01*
X003089Y005291D01*
X003104Y005303D01*
X003122Y005312D01*
X003140Y005318D01*
X003160Y005320D01*
X003180Y005318D01*
X003198Y005312D01*
X003216Y005303D01*
X003231Y005291D01*
X003243Y005276D01*
X003252Y005258D01*
X003258Y005240D01*
X003260Y005220D01*
X003258Y005200D01*
X003252Y005182D01*
X003243Y005164D01*
X003231Y005149D01*
X003216Y005137D01*
X003198Y005128D01*
X003180Y005122D01*
X003160Y005120D01*
X003140Y005122D01*
X003122Y005128D01*
X003104Y005137D01*
X003089Y005149D01*
X003077Y005164D01*
X003068Y005182D01*
X003062Y005200D01*
X003060Y005220D01*
D13*
X004930Y006530D03*
D14*
X003205Y006280D03*
X006655Y006280D03*
D15*
X005430Y006280D03*
X004430Y006280D03*
D16*
X002075Y003995D02*
X001985Y003859D01*
X001895Y003995D01*
X001805Y003859D02*
X002075Y003859D01*
X002030Y003745D02*
X002075Y003700D01*
X002075Y003610D01*
X002030Y003565D01*
X001940Y003565D01*
X001940Y003700D01*
X001985Y003745D01*
X002030Y003745D01*
X001850Y003655D02*
X001940Y003565D01*
X001850Y003655D02*
X001805Y003745D01*
X001805Y003360D02*
X002075Y003360D01*
X002075Y003270D02*
X002075Y003450D01*
X001895Y003270D02*
X001805Y003360D01*
X001091Y005135D02*
X000910Y005135D01*
X001000Y005135D02*
X001000Y005405D01*
X000910Y005315D01*
X000796Y005270D02*
X000751Y005225D01*
X000616Y005225D01*
X000706Y005225D02*
X000796Y005135D01*
X000796Y005270D02*
X000796Y005360D01*
X000751Y005405D01*
X000616Y005405D01*
X000616Y005135D01*
X007455Y006275D02*
X007755Y006275D01*
X007605Y006275D02*
X007605Y005825D01*
X007915Y005825D02*
X008216Y005825D01*
X008066Y005825D02*
X008066Y006275D01*
X007915Y006125D01*
D17*
X007680Y005930D02*
X008180Y005930D01*
X008680Y005930D02*
X009180Y005930D01*
X006430Y003930D02*
X006430Y003430D01*
X006680Y002180D02*
X007180Y002180D01*
X007430Y001930D01*
X007680Y002180D01*
X008180Y002180D01*
X008430Y001930D01*
X008430Y001430D01*
X008180Y001180D01*
X007680Y001180D01*
X007430Y001430D01*
X007180Y001180D01*
X006680Y001180D01*
X006430Y001430D01*
X006430Y001930D01*
X006680Y002180D01*
X003680Y003680D02*
X003180Y003680D01*
X002580Y001908D02*
X001280Y001908D01*
X001280Y005452D01*
X002580Y005452D01*
X002580Y001908D01*
D18*
X002673Y003395D02*
X002867Y003395D01*
X002915Y003443D01*
X002915Y003540D01*
X002867Y003588D01*
X002915Y003690D02*
X002722Y003883D01*
X002673Y003883D01*
X002625Y003835D01*
X002625Y003738D01*
X002673Y003690D01*
X002673Y003588D02*
X002625Y003540D01*
X002625Y003443D01*
X002673Y003395D01*
X002915Y003690D02*
X002915Y003883D01*
X006145Y004243D02*
X006193Y004195D01*
X006290Y004195D01*
X006338Y004243D01*
X006440Y004195D02*
X006633Y004195D01*
X006536Y004195D02*
X006536Y004485D01*
X006440Y004388D01*
X006338Y004437D02*
X006290Y004485D01*
X006193Y004485D01*
X006145Y004437D01*
X006145Y004243D01*
D19*
X008430Y010180D02*
X008430Y013180D01*
X001430Y013180D01*
X001430Y010180D01*
X008430Y010180D01*
D20*
X005930Y007080D03*
X003930Y007080D03*
D21*
X007275Y005857D02*
X007350Y005782D01*
X007350Y005882D01*
X007425Y005857D02*
X007275Y005857D01*
X007300Y005735D02*
X007275Y005710D01*
X007275Y005660D01*
X007300Y005635D01*
X007400Y005635D01*
X007425Y005660D01*
X007425Y005710D01*
X007400Y005735D01*
X008275Y005710D02*
X008275Y005660D01*
X008300Y005635D01*
X008400Y005635D01*
X008425Y005660D01*
X008425Y005710D01*
X008400Y005735D01*
X008400Y005782D02*
X008425Y005807D01*
X008425Y005857D01*
X008400Y005882D01*
X008375Y005882D01*
X008350Y005857D01*
X008350Y005832D01*
X008350Y005857D02*
X008325Y005882D01*
X008300Y005882D01*
X008275Y005857D01*
X008275Y005807D01*
X008300Y005782D01*
X008300Y005735D02*
X008275Y005710D01*
M02*
